<?xml version="1.0" encoding="UTF-8" standalone="no"?>
<!DOCTYPE svg PUBLIC "-//W3C//DTD SVG 1.1//EN"
 "http://www.w3.org/Graphics/SVG/1.1/DTD/svg11.dtd">
<!-- Generated by graphviz version 2.46.0 (20210119.1425)
 -->
<!-- Title: dependencies Pages: 1 -->
<svg width="2456pt" height="284pt"
 viewBox="0.00 0.00 2456.00 284.00" xmlns="http://www.w3.org/2000/svg" xmlns:xlink="http://www.w3.org/1999/xlink">
<g id="graph0" class="graph" transform="scale(1 1) rotate(0) translate(4 280)">
<title>dependencies</title>
<polygon fill="white" stroke="transparent" points="-4,4 -4,-280 2452,-280 2452,4 -4,4"/>
<text text-anchor="start" x="1203.01" y="-42.4" font-family="sans-serif" font-weight="bold" font-size="14.00">Legend</text>
<polygon fill="#ffffb3" stroke="transparent" points="990,-10 990,-30 1010,-30 1010,-10 990,-10"/>
<text text-anchor="start" x="1013.63" y="-15.4" font-family="sans-serif" font-size="14.00"> &#160;Declarations</text>
<polygon fill="#8dd3c7" stroke="transparent" points="1103,-10 1103,-30 1123,-30 1123,-10 1103,-10"/>
<text text-anchor="start" x="1126.73" y="-15.4" font-family="sans-serif" font-size="14.00"> &#160;Module</text>
<polygon fill="#80b1d3" stroke="transparent" points="1189,-10 1189,-30 1209,-30 1209,-10 1189,-10"/>
<text text-anchor="start" x="1212.78" y="-15.4" font-family="sans-serif" font-size="14.00"> &#160;Bootstrap</text>
<polygon fill="#fdb462" stroke="transparent" points="1286,-10 1286,-30 1306,-30 1306,-10 1286,-10"/>
<text text-anchor="start" x="1309.67" y="-15.4" font-family="sans-serif" font-size="14.00"> &#160;Providers</text>
<polygon fill="#fb8072" stroke="transparent" points="1382,-10 1382,-30 1402,-30 1402,-10 1382,-10"/>
<text text-anchor="start" x="1405.73" y="-15.4" font-family="sans-serif" font-size="14.00"> &#160;Exports</text>
<g id="clust1" class="cluster">
<title>cluster_ROSModule</title>
<polygon fill="none" stroke="black" stroke-dasharray="1,5" points="8,-70 8,-268 2440,-268 2440,-70 8,-70"/>
</g>
<g id="clust2" class="cluster">
<title>cluster_ROSModule_declarations</title>
<polygon fill="none" stroke="black" points="776,-78 776,-130 2432,-130 2432,-78 776,-78"/>
</g>
<g id="clust14" class="cluster">
<title>cluster_ROSModule_imports</title>
<polygon fill="none" stroke="black" points="274,-78 274,-130 768,-130 768,-78 274,-78"/>
</g>
<g id="clust16" class="cluster">
<title>cluster_ROSModule_bootstrap</title>
<polygon fill="none" stroke="black" points="1115,-208 1115,-260 1243,-260 1243,-208 1115,-208"/>
</g>
<g id="clust17" class="cluster">
<title>cluster_ROSModule_providers</title>
<polygon fill="none" stroke="black" points="16,-78 16,-130 266,-130 266,-78 16,-78"/>
</g>
<!-- ROSComponent -->
<g id="node1" class="node">
<title>ROSComponent</title>
<polygon fill="#ffffb3" stroke="black" points="2424.06,-122 2315.94,-122 2315.94,-86 2424.06,-86 2424.06,-122"/>
<text text-anchor="middle" x="2370" y="-99.8" font-family="Times,serif" font-size="14.00">ROSComponent</text>
</g>
<!-- ROSModule -->
<g id="node12" class="node">
<title>ROSModule</title>
<polygon fill="#8dd3c7" stroke="black" points="1222.28,-187 1219.28,-191 1198.28,-191 1195.28,-187 1135.72,-187 1135.72,-151 1222.28,-151 1222.28,-187"/>
<text text-anchor="middle" x="1179" y="-164.8" font-family="Times,serif" font-size="14.00">ROSModule</text>
</g>
<!-- ROSComponent&#45;&gt;ROSModule -->
<g id="edge1" class="edge">
<title>ROSComponent&#45;&gt;ROSModule</title>
<path fill="none" stroke="black" d="M2370,-122.32C2370,-145.66 2370,-183 2370,-183 2370,-183 1232.45,-183 1232.45,-183"/>
<polygon fill="black" stroke="black" points="1232.45,-179.5 1222.45,-183 1232.45,-186.5 1232.45,-179.5"/>
</g>
<!-- DashboardComponent -->
<g id="node2" class="node">
<title>DashboardComponent</title>
<polygon fill="#ffffb3" stroke="black" points="2297.97,-122 2156.03,-122 2156.03,-86 2297.97,-86 2297.97,-122"/>
<text text-anchor="middle" x="2227" y="-99.8" font-family="Times,serif" font-size="14.00">DashboardComponent</text>
</g>
<!-- DashboardComponent&#45;&gt;ROSModule -->
<g id="edge2" class="edge">
<title>DashboardComponent&#45;&gt;ROSModule</title>
<path fill="none" stroke="black" d="M2227,-122.29C2227,-144.21 2227,-178 2227,-178 2227,-178 1232.37,-178 1232.37,-178"/>
<polygon fill="black" stroke="black" points="1232.37,-174.5 1222.37,-178 1232.37,-181.5 1232.37,-174.5"/>
</g>
<!-- IntegrationComponent -->
<g id="node3" class="node">
<title>IntegrationComponent</title>
<polygon fill="#ffffb3" stroke="black" points="2138.25,-122 1995.75,-122 1995.75,-86 2138.25,-86 2138.25,-122"/>
<text text-anchor="middle" x="2067" y="-99.8" font-family="Times,serif" font-size="14.00">IntegrationComponent</text>
</g>
<!-- IntegrationComponent&#45;&gt;ROSModule -->
<g id="edge3" class="edge">
<title>IntegrationComponent&#45;&gt;ROSModule</title>
<path fill="none" stroke="black" d="M2067,-122.03C2067,-142.77 2067,-174 2067,-174 2067,-174 1232.43,-174 1232.43,-174"/>
<polygon fill="black" stroke="black" points="1232.43,-170.5 1222.43,-174 1232.43,-177.5 1232.43,-170.5"/>
</g>
<!-- IntegrationSidebarComponent -->
<g id="node4" class="node">
<title>IntegrationSidebarComponent</title>
<polygon fill="#ffffb3" stroke="black" points="1977.52,-122 1792.48,-122 1792.48,-86 1977.52,-86 1977.52,-122"/>
<text text-anchor="middle" x="1885" y="-99.8" font-family="Times,serif" font-size="14.00">IntegrationSidebarComponent</text>
</g>
<!-- IntegrationSidebarComponent&#45;&gt;ROSModule -->
<g id="edge4" class="edge">
<title>IntegrationSidebarComponent&#45;&gt;ROSModule</title>
<path fill="none" stroke="black" d="M1885,-122.11C1885,-141.34 1885,-169 1885,-169 1885,-169 1232.37,-169 1232.37,-169"/>
<polygon fill="black" stroke="black" points="1232.37,-165.5 1222.37,-169 1232.37,-172.5 1232.37,-165.5"/>
</g>
<!-- ShopwaveComponent -->
<g id="node5" class="node">
<title>ShopwaveComponent</title>
<polygon fill="#ffffb3" stroke="black" points="1773.65,-122 1634.35,-122 1634.35,-86 1773.65,-86 1773.65,-122"/>
<text text-anchor="middle" x="1704" y="-99.8" font-family="Times,serif" font-size="14.00">ShopwaveComponent</text>
</g>
<!-- ShopwaveComponent&#45;&gt;ROSModule -->
<g id="edge5" class="edge">
<title>ShopwaveComponent&#45;&gt;ROSModule</title>
<path fill="none" stroke="black" d="M1704,-122.3C1704,-140.27 1704,-165 1704,-165 1704,-165 1232.41,-165 1232.41,-165"/>
<polygon fill="black" stroke="black" points="1232.41,-161.5 1222.41,-165 1232.41,-168.5 1232.41,-161.5"/>
</g>
<!-- FoodicsComponent -->
<g id="node6" class="node">
<title>FoodicsComponent</title>
<polygon fill="#ffffb3" stroke="black" points="1615.67,-122 1490.33,-122 1490.33,-86 1615.67,-86 1615.67,-122"/>
<text text-anchor="middle" x="1553" y="-99.8" font-family="Times,serif" font-size="14.00">FoodicsComponent</text>
</g>
<!-- FoodicsComponent&#45;&gt;ROSModule -->
<g id="edge6" class="edge">
<title>FoodicsComponent&#45;&gt;ROSModule</title>
<path fill="none" stroke="black" d="M1553,-122.03C1553,-138.4 1553,-160 1553,-160 1553,-160 1232.63,-160 1232.63,-160"/>
<polygon fill="black" stroke="black" points="1232.63,-156.5 1222.63,-160 1232.63,-163.5 1232.63,-156.5"/>
</g>
<!-- EposComponent -->
<g id="node7" class="node">
<title>EposComponent</title>
<polygon fill="#ffffb3" stroke="black" points="1472.83,-122 1363.17,-122 1363.17,-86 1472.83,-86 1472.83,-122"/>
<text text-anchor="middle" x="1418" y="-99.8" font-family="Times,serif" font-size="14.00">EposComponent</text>
</g>
<!-- EposComponent&#45;&gt;ROSModule -->
<g id="edge7" class="edge">
<title>EposComponent&#45;&gt;ROSModule</title>
<path fill="none" stroke="black" d="M1418,-122.19C1418,-137.18 1418,-156 1418,-156 1418,-156 1232.28,-156 1232.28,-156"/>
<polygon fill="black" stroke="black" points="1232.28,-152.5 1222.28,-156 1232.28,-159.5 1232.28,-152.5"/>
</g>
<!-- DynamicDialogComponent -->
<g id="node8" class="node">
<title>DynamicDialogComponent</title>
<polygon fill="#ffffb3" stroke="black" points="1345.25,-122 1174.75,-122 1174.75,-86 1345.25,-86 1345.25,-122"/>
<text text-anchor="middle" x="1260" y="-99.8" font-family="Times,serif" font-size="14.00">DynamicDialogComponent</text>
</g>
<!-- DynamicDialogComponent&#45;&gt;ROSModule -->
<g id="edge8" class="edge">
<title>DynamicDialogComponent&#45;&gt;ROSModule</title>
<path fill="none" stroke="black" d="M1198.51,-122.11C1198.51,-122.11 1198.51,-140.99 1198.51,-140.99"/>
<polygon fill="black" stroke="black" points="1195.01,-140.99 1198.51,-150.99 1202.01,-140.99 1195.01,-140.99"/>
</g>
<!-- InsertionDirective -->
<g id="node9" class="node">
<title>InsertionDirective</title>
<polygon fill="#ffffb3" stroke="black" points="1156.84,-122 1039.16,-122 1039.16,-86 1156.84,-86 1156.84,-122"/>
<text text-anchor="middle" x="1098" y="-99.8" font-family="Times,serif" font-size="14.00">InsertionDirective</text>
</g>
<!-- InsertionDirective&#45;&gt;ROSModule -->
<g id="edge9" class="edge">
<title>InsertionDirective&#45;&gt;ROSModule</title>
<path fill="none" stroke="black" d="M1146.27,-122.11C1146.27,-122.11 1146.27,-140.99 1146.27,-140.99"/>
<polygon fill="black" stroke="black" points="1142.77,-140.99 1146.27,-150.99 1149.77,-140.99 1142.77,-140.99"/>
</g>
<!-- XeroComponent -->
<g id="node10" class="node">
<title>XeroComponent</title>
<polygon fill="#ffffb3" stroke="black" points="1020.81,-122 911.19,-122 911.19,-86 1020.81,-86 1020.81,-122"/>
<text text-anchor="middle" x="966" y="-99.8" font-family="Times,serif" font-size="14.00">XeroComponent</text>
</g>
<!-- XeroComponent&#45;&gt;ROSModule -->
<g id="edge10" class="edge">
<title>XeroComponent&#45;&gt;ROSModule</title>
<path fill="none" stroke="black" d="M966,-122.19C966,-137.18 966,-156 966,-156 966,-156 1125.64,-156 1125.64,-156"/>
<polygon fill="black" stroke="black" points="1125.64,-159.5 1135.64,-156 1125.64,-152.5 1125.64,-159.5"/>
</g>
<!-- SearchFilterPipe -->
<g id="node11" class="node">
<title>SearchFilterPipe</title>
<polygon fill="#ffffb3" stroke="black" points="893.8,-122 784.2,-122 784.2,-86 893.8,-86 893.8,-122"/>
<text text-anchor="middle" x="839" y="-99.8" font-family="Times,serif" font-size="14.00">SearchFilterPipe</text>
</g>
<!-- SearchFilterPipe&#45;&gt;ROSModule -->
<g id="edge11" class="edge">
<title>SearchFilterPipe&#45;&gt;ROSModule</title>
<path fill="none" stroke="black" d="M839,-122.03C839,-138.4 839,-160 839,-160 839,-160 1125.59,-160 1125.59,-160"/>
<polygon fill="black" stroke="black" points="1125.59,-163.5 1135.59,-160 1125.59,-156.5 1125.59,-163.5"/>
</g>
<!-- ROSComponent  -->
<g id="node17" class="node">
<title>ROSComponent </title>
<polygon fill="#80b1d3" stroke="black" points="1235.06,-252 1122.94,-252 1122.94,-216 1235.06,-216 1235.06,-252"/>
<text text-anchor="middle" x="1179" y="-229.8" font-family="Times,serif" font-size="14.00">ROSComponent </text>
</g>
<!-- ROSModule&#45;&gt;ROSComponent  -->
<g id="edge16" class="edge">
<title>ROSModule&#45;&gt;ROSComponent </title>
<path fill="none" stroke="black" stroke-dasharray="1,5" d="M1179,-187.11C1179,-187.11 1179,-205.99 1179,-205.99"/>
<polygon fill="black" stroke="black" points="1175.5,-205.99 1179,-215.99 1182.5,-205.99 1175.5,-205.99"/>
</g>
<!-- ThemeModule -->
<g id="node13" class="node">
<title>ThemeModule</title>
<polygon fill="#8dd3c7" stroke="black" points="760.42,-122 757.42,-126 736.42,-126 733.42,-122 661.58,-122 661.58,-86 760.42,-86 760.42,-122"/>
<text text-anchor="middle" x="711" y="-99.8" font-family="Times,serif" font-size="14.00">ThemeModule</text>
</g>
<!-- ThemeModule&#45;&gt;ROSModule -->
<g id="edge12" class="edge">
<title>ThemeModule&#45;&gt;ROSModule</title>
<path fill="none" stroke="black" d="M711,-122.3C711,-140.27 711,-165 711,-165 711,-165 1125.39,-165 1125.39,-165"/>
<polygon fill="black" stroke="black" points="1125.39,-168.5 1135.39,-165 1125.39,-161.5 1125.39,-168.5"/>
</g>
<!-- AuthModule -->
<g id="node14" class="node">
<title>AuthModule</title>
<polygon fill="#8dd3c7" stroke="black" points="643.55,-122 640.55,-126 619.55,-126 616.55,-122 556.45,-122 556.45,-86 643.55,-86 643.55,-122"/>
<text text-anchor="middle" x="600" y="-99.8" font-family="Times,serif" font-size="14.00">AuthModule</text>
</g>
<!-- AuthModule&#45;&gt;ROSModule -->
<g id="edge13" class="edge">
<title>AuthModule&#45;&gt;ROSModule</title>
<path fill="none" stroke="black" d="M600,-122.11C600,-141.34 600,-169 600,-169 600,-169 1125.48,-169 1125.48,-169"/>
<polygon fill="black" stroke="black" points="1125.48,-172.5 1135.48,-169 1125.48,-165.5 1125.48,-172.5"/>
</g>
<!-- MiscellaneousModule -->
<g id="node15" class="node">
<title>MiscellaneousModule</title>
<polygon fill="#8dd3c7" stroke="black" points="538.41,-122 535.41,-126 514.41,-126 511.41,-122 397.59,-122 397.59,-86 538.41,-86 538.41,-122"/>
<text text-anchor="middle" x="468" y="-99.8" font-family="Times,serif" font-size="14.00">MiscellaneousModule</text>
</g>
<!-- MiscellaneousModule&#45;&gt;ROSModule -->
<g id="edge14" class="edge">
<title>MiscellaneousModule&#45;&gt;ROSModule</title>
<path fill="none" stroke="black" d="M468,-122.03C468,-142.77 468,-174 468,-174 468,-174 1125.59,-174 1125.59,-174"/>
<polygon fill="black" stroke="black" points="1125.59,-177.5 1135.59,-174 1125.59,-170.5 1125.59,-177.5"/>
</g>
<!-- SharedModule -->
<g id="node16" class="node">
<title>SharedModule</title>
<polygon fill="#8dd3c7" stroke="black" points="380.42,-122 377.42,-126 356.42,-126 353.42,-122 281.58,-122 281.58,-86 380.42,-86 380.42,-122"/>
<text text-anchor="middle" x="331" y="-99.8" font-family="Times,serif" font-size="14.00">SharedModule</text>
</g>
<!-- SharedModule&#45;&gt;ROSModule -->
<g id="edge15" class="edge">
<title>SharedModule&#45;&gt;ROSModule</title>
<path fill="none" stroke="black" d="M331,-122.29C331,-144.21 331,-178 331,-178 331,-178 1125.49,-178 1125.49,-178"/>
<polygon fill="black" stroke="black" points="1125.49,-181.5 1135.49,-178 1125.49,-174.5 1125.49,-181.5"/>
</g>
<!-- IntegrationMappingService -->
<g id="node18" class="node">
<title>IntegrationMappingService</title>
<ellipse fill="#fdb462" stroke="black" cx="141" cy="-104" rx="117.46" ry="18"/>
<text text-anchor="middle" x="141" y="-99.8" font-family="Times,serif" font-size="14.00">IntegrationMappingService</text>
</g>
<!-- IntegrationMappingService&#45;&gt;ROSModule -->
<g id="edge17" class="edge">
<title>IntegrationMappingService&#45;&gt;ROSModule</title>
<path fill="none" stroke="black" d="M141,-122.32C141,-145.66 141,-183 141,-183 141,-183 1125.72,-183 1125.72,-183"/>
<polygon fill="black" stroke="black" points="1125.72,-186.5 1135.72,-183 1125.72,-179.5 1125.72,-186.5"/>
</g>
</g>
</svg>
