<?xml version="1.0" encoding="UTF-8" standalone="no"?>
<!DOCTYPE svg PUBLIC "-//W3C//DTD SVG 1.1//EN"
 "http://www.w3.org/Graphics/SVG/1.1/DTD/svg11.dtd">
<!-- Generated by graphviz version 2.46.0 (20210119.1425)
 -->
<!-- Title: dependencies Pages: 1 -->
<svg width="718pt" height="211pt"
 viewBox="0.00 0.00 718.00 211.00" xmlns="http://www.w3.org/2000/svg" xmlns:xlink="http://www.w3.org/1999/xlink">
<g id="graph0" class="graph" transform="scale(1 1) rotate(0) translate(4 207)">
<title>dependencies</title>
<polygon fill="white" stroke="transparent" points="-4,4 -4,-207 714,-207 714,4 -4,4"/>
<text text-anchor="start" x="334.01" y="-42.4" font-family="sans-serif" font-weight="bold" font-size="14.00">Legend</text>
<polygon fill="#ffffb3" stroke="transparent" points="121,-10 121,-30 141,-30 141,-10 121,-10"/>
<text text-anchor="start" x="144.63" y="-15.4" font-family="sans-serif" font-size="14.00"> &#160;Declarations</text>
<polygon fill="#8dd3c7" stroke="transparent" points="234,-10 234,-30 254,-30 254,-10 234,-10"/>
<text text-anchor="start" x="257.73" y="-15.4" font-family="sans-serif" font-size="14.00"> &#160;Module</text>
<polygon fill="#80b1d3" stroke="transparent" points="320,-10 320,-30 340,-30 340,-10 320,-10"/>
<text text-anchor="start" x="343.78" y="-15.4" font-family="sans-serif" font-size="14.00"> &#160;Bootstrap</text>
<polygon fill="#fdb462" stroke="transparent" points="417,-10 417,-30 437,-30 437,-10 417,-10"/>
<text text-anchor="start" x="440.67" y="-15.4" font-family="sans-serif" font-size="14.00"> &#160;Providers</text>
<polygon fill="#fb8072" stroke="transparent" points="513,-10 513,-30 533,-30 533,-10 513,-10"/>
<text text-anchor="start" x="536.73" y="-15.4" font-family="sans-serif" font-size="14.00"> &#160;Exports</text>
<g id="clust1" class="cluster">
<title>cluster_SharedModule</title>
<polygon fill="none" stroke="black" stroke-dasharray="1,5" points="8,-70 8,-195 702,-195 702,-70 8,-70"/>
</g>
<g id="clust3" class="cluster">
<title>cluster_SharedModule_imports</title>
<polygon fill="none" stroke="black" points="418,-78 418,-130 694,-130 694,-78 418,-78"/>
</g>
<g id="clust6" class="cluster">
<title>cluster_SharedModule_providers</title>
<polygon fill="none" stroke="black" points="16,-78 16,-130 410,-130 410,-78 16,-78"/>
</g>
<!-- SharedRoutingModule -->
<g id="node1" class="node">
<title>SharedRoutingModule</title>
<polygon fill="#8dd3c7" stroke="black" points="685.54,-122 682.54,-126 661.54,-126 658.54,-122 542.46,-122 542.46,-86 685.54,-86 685.54,-122"/>
<text text-anchor="middle" x="614" y="-99.8" font-family="Times,serif" font-size="14.00">SharedRoutingModule</text>
</g>
<!-- SharedModule -->
<g id="node3" class="node">
<title>SharedModule</title>
<polygon fill="#8dd3c7" stroke="black" points="437.42,-187 434.42,-191 413.42,-191 410.42,-187 338.58,-187 338.58,-151 437.42,-151 437.42,-187"/>
<text text-anchor="middle" x="388" y="-164.8" font-family="Times,serif" font-size="14.00">SharedModule</text>
</g>
<!-- SharedRoutingModule&#45;&gt;SharedModule -->
<g id="edge1" class="edge">
<title>SharedRoutingModule&#45;&gt;SharedModule</title>
<path fill="none" stroke="black" d="M614,-122.11C614,-141.34 614,-169 614,-169 614,-169 447.32,-169 447.32,-169"/>
<polygon fill="black" stroke="black" points="447.32,-165.5 437.32,-169 447.32,-172.5 447.32,-165.5"/>
</g>
<!-- ThemeModule -->
<g id="node2" class="node">
<title>ThemeModule</title>
<polygon fill="#8dd3c7" stroke="black" points="524.42,-122 521.42,-126 500.42,-126 497.42,-122 425.58,-122 425.58,-86 524.42,-86 524.42,-122"/>
<text text-anchor="middle" x="475" y="-99.8" font-family="Times,serif" font-size="14.00">ThemeModule</text>
</g>
<!-- ThemeModule&#45;&gt;SharedModule -->
<g id="edge2" class="edge">
<title>ThemeModule&#45;&gt;SharedModule</title>
<path fill="none" stroke="black" d="M431.5,-122.11C431.5,-122.11 431.5,-140.99 431.5,-140.99"/>
<polygon fill="black" stroke="black" points="428,-140.99 431.5,-150.99 435,-140.99 428,-140.99"/>
</g>
<!-- AgGridCustomService -->
<g id="node4" class="node">
<title>AgGridCustomService</title>
<ellipse fill="#fdb462" stroke="black" cx="302" cy="-104" rx="99.58" ry="18"/>
<text text-anchor="middle" x="302" y="-99.8" font-family="Times,serif" font-size="14.00">AgGridCustomService</text>
</g>
<!-- AgGridCustomService&#45;&gt;SharedModule -->
<g id="edge3" class="edge">
<title>AgGridCustomService&#45;&gt;SharedModule</title>
<path fill="none" stroke="black" d="M370.16,-117.15C370.16,-117.15 370.16,-140.69 370.16,-140.69"/>
<polygon fill="black" stroke="black" points="366.66,-140.69 370.16,-150.69 373.66,-140.69 366.66,-140.69"/>
</g>
<!-- DownloadService -->
<g id="node5" class="node">
<title>DownloadService</title>
<ellipse fill="#fdb462" stroke="black" cx="104" cy="-104" rx="80.44" ry="18"/>
<text text-anchor="middle" x="104" y="-99.8" font-family="Times,serif" font-size="14.00">DownloadService</text>
</g>
<!-- DownloadService&#45;&gt;SharedModule -->
<g id="edge4" class="edge">
<title>DownloadService&#45;&gt;SharedModule</title>
<path fill="none" stroke="black" d="M104,-122.11C104,-141.34 104,-169 104,-169 104,-169 328.53,-169 328.53,-169"/>
<polygon fill="black" stroke="black" points="328.53,-172.5 338.53,-169 328.53,-165.5 328.53,-172.5"/>
</g>
</g>
</svg>
