<?xml version="1.0" encoding="UTF-8" standalone="no"?>
<!DOCTYPE svg PUBLIC "-//W3C//DTD SVG 1.1//EN"
 "http://www.w3.org/Graphics/SVG/1.1/DTD/svg11.dtd">
<!-- Generated by graphviz version 2.46.0 (20210119.1425)
 -->
<!-- Title: dependencies Pages: 1 -->
<svg width="700pt" height="211pt"
 viewBox="0.00 0.00 700.00 211.00" xmlns="http://www.w3.org/2000/svg" xmlns:xlink="http://www.w3.org/1999/xlink">
<g id="graph0" class="graph" transform="scale(1 1) rotate(0) translate(4 207)">
<title>dependencies</title>
<polygon fill="white" stroke="transparent" points="-4,4 -4,-207 696,-207 696,4 -4,4"/>
<text text-anchor="start" x="325.01" y="-42.4" font-family="sans-serif" font-weight="bold" font-size="14.00">Legend</text>
<polygon fill="#ffffb3" stroke="transparent" points="112,-10 112,-30 132,-30 132,-10 112,-10"/>
<text text-anchor="start" x="135.63" y="-15.4" font-family="sans-serif" font-size="14.00"> &#160;Declarations</text>
<polygon fill="#8dd3c7" stroke="transparent" points="225,-10 225,-30 245,-30 245,-10 225,-10"/>
<text text-anchor="start" x="248.73" y="-15.4" font-family="sans-serif" font-size="14.00"> &#160;Module</text>
<polygon fill="#80b1d3" stroke="transparent" points="311,-10 311,-30 331,-30 331,-10 311,-10"/>
<text text-anchor="start" x="334.78" y="-15.4" font-family="sans-serif" font-size="14.00"> &#160;Bootstrap</text>
<polygon fill="#fdb462" stroke="transparent" points="408,-10 408,-30 428,-30 428,-10 408,-10"/>
<text text-anchor="start" x="431.67" y="-15.4" font-family="sans-serif" font-size="14.00"> &#160;Providers</text>
<polygon fill="#fb8072" stroke="transparent" points="504,-10 504,-30 524,-30 524,-10 504,-10"/>
<text text-anchor="start" x="527.73" y="-15.4" font-family="sans-serif" font-size="14.00"> &#160;Exports</text>
<g id="clust1" class="cluster">
<title>cluster_MiscellaneousModule</title>
<polygon fill="none" stroke="black" stroke-dasharray="1,5" points="8,-70 8,-195 684,-195 684,-70 8,-70"/>
</g>
<g id="clust5" class="cluster">
<title>cluster_MiscellaneousModule_imports</title>
<polygon fill="none" stroke="black" points="358,-78 358,-130 676,-130 676,-78 358,-78"/>
</g>
<g id="clust2" class="cluster">
<title>cluster_MiscellaneousModule_declarations</title>
<polygon fill="none" stroke="black" points="16,-78 16,-130 350,-130 350,-78 16,-78"/>
</g>
<!-- MiscellaneousComponent -->
<g id="node1" class="node">
<title>MiscellaneousComponent</title>
<polygon fill="#ffffb3" stroke="black" points="342.2,-122 179.8,-122 179.8,-86 342.2,-86 342.2,-122"/>
<text text-anchor="middle" x="261" y="-99.8" font-family="Times,serif" font-size="14.00">MiscellaneousComponent</text>
</g>
<!-- MiscellaneousModule -->
<g id="node3" class="node">
<title>MiscellaneousModule</title>
<polygon fill="#8dd3c7" stroke="black" points="430.41,-187 427.41,-191 406.41,-191 403.41,-187 289.59,-187 289.59,-151 430.41,-151 430.41,-187"/>
<text text-anchor="middle" x="360" y="-164.8" font-family="Times,serif" font-size="14.00">MiscellaneousModule</text>
</g>
<!-- MiscellaneousComponent&#45;&gt;MiscellaneousModule -->
<g id="edge1" class="edge">
<title>MiscellaneousComponent&#45;&gt;MiscellaneousModule</title>
<path fill="none" stroke="black" d="M315.95,-122.11C315.95,-122.11 315.95,-140.99 315.95,-140.99"/>
<polygon fill="black" stroke="black" points="312.45,-140.99 315.95,-150.99 319.45,-140.99 312.45,-140.99"/>
</g>
<!-- NotFoundComponent -->
<g id="node2" class="node">
<title>NotFoundComponent</title>
<polygon fill="#ffffb3" stroke="black" points="162.11,-122 23.89,-122 23.89,-86 162.11,-86 162.11,-122"/>
<text text-anchor="middle" x="93" y="-99.8" font-family="Times,serif" font-size="14.00">NotFoundComponent</text>
</g>
<!-- NotFoundComponent&#45;&gt;MiscellaneousModule -->
<g id="edge2" class="edge">
<title>NotFoundComponent&#45;&gt;MiscellaneousModule</title>
<path fill="none" stroke="black" d="M93,-122.11C93,-141.34 93,-169 93,-169 93,-169 279.5,-169 279.5,-169"/>
<polygon fill="black" stroke="black" points="279.5,-172.5 289.5,-169 279.5,-165.5 279.5,-172.5"/>
</g>
<!-- ThemeModule -->
<g id="node4" class="node">
<title>ThemeModule</title>
<polygon fill="#8dd3c7" stroke="black" points="668.42,-122 665.42,-126 644.42,-126 641.42,-122 569.58,-122 569.58,-86 668.42,-86 668.42,-122"/>
<text text-anchor="middle" x="619" y="-99.8" font-family="Times,serif" font-size="14.00">ThemeModule</text>
</g>
<!-- ThemeModule&#45;&gt;MiscellaneousModule -->
<g id="edge3" class="edge">
<title>ThemeModule&#45;&gt;MiscellaneousModule</title>
<path fill="none" stroke="black" d="M619,-122.11C619,-141.34 619,-169 619,-169 619,-169 440.43,-169 440.43,-169"/>
<polygon fill="black" stroke="black" points="440.43,-165.5 430.43,-169 440.43,-172.5 440.43,-165.5"/>
</g>
<!-- MiscellaneousRoutingModule -->
<g id="node5" class="node">
<title>MiscellaneousRoutingModule</title>
<polygon fill="#8dd3c7" stroke="black" points="551.53,-122 548.53,-126 527.53,-126 524.53,-122 366.47,-122 366.47,-86 551.53,-86 551.53,-122"/>
<text text-anchor="middle" x="459" y="-99.8" font-family="Times,serif" font-size="14.00">MiscellaneousRoutingModule</text>
</g>
<!-- MiscellaneousRoutingModule&#45;&gt;MiscellaneousModule -->
<g id="edge4" class="edge">
<title>MiscellaneousRoutingModule&#45;&gt;MiscellaneousModule</title>
<path fill="none" stroke="black" d="M398.22,-122.11C398.22,-122.11 398.22,-140.99 398.22,-140.99"/>
<polygon fill="black" stroke="black" points="394.72,-140.99 398.22,-150.99 401.72,-140.99 394.72,-140.99"/>
</g>
</g>
</svg>
