<?xml version="1.0" encoding="UTF-8" standalone="no"?>
<!DOCTYPE svg PUBLIC "-//W3C//DTD SVG 1.1//EN"
 "http://www.w3.org/Graphics/SVG/1.1/DTD/svg11.dtd">
<!-- Generated by graphviz version 2.46.0 (20210119.1425)
 -->
<!-- Title: dependencies Pages: 1 -->
<svg width="10495pt" height="211pt"
 viewBox="0.00 0.00 10495.00 211.00" xmlns="http://www.w3.org/2000/svg" xmlns:xlink="http://www.w3.org/1999/xlink">
<g id="graph0" class="graph" transform="scale(1 1) rotate(0) translate(4 207)">
<title>dependencies</title>
<polygon fill="white" stroke="transparent" points="-4,4 -4,-207 10491,-207 10491,4 -4,4"/>
<text text-anchor="start" x="5222.51" y="-42.4" font-family="sans-serif" font-weight="bold" font-size="14.00">Legend</text>
<polygon fill="#ffffb3" stroke="transparent" points="5009.5,-10 5009.5,-30 5029.5,-30 5029.5,-10 5009.5,-10"/>
<text text-anchor="start" x="5033.13" y="-15.4" font-family="sans-serif" font-size="14.00"> &#160;Declarations</text>
<polygon fill="#8dd3c7" stroke="transparent" points="5122.5,-10 5122.5,-30 5142.5,-30 5142.5,-10 5122.5,-10"/>
<text text-anchor="start" x="5146.23" y="-15.4" font-family="sans-serif" font-size="14.00"> &#160;Module</text>
<polygon fill="#80b1d3" stroke="transparent" points="5208.5,-10 5208.5,-30 5228.5,-30 5228.5,-10 5208.5,-10"/>
<text text-anchor="start" x="5232.28" y="-15.4" font-family="sans-serif" font-size="14.00"> &#160;Bootstrap</text>
<polygon fill="#fdb462" stroke="transparent" points="5305.5,-10 5305.5,-30 5325.5,-30 5325.5,-10 5305.5,-10"/>
<text text-anchor="start" x="5329.17" y="-15.4" font-family="sans-serif" font-size="14.00"> &#160;Providers</text>
<polygon fill="#fb8072" stroke="transparent" points="5401.5,-10 5401.5,-30 5421.5,-30 5421.5,-10 5401.5,-10"/>
<text text-anchor="start" x="5425.23" y="-15.4" font-family="sans-serif" font-size="14.00"> &#160;Exports</text>
<g id="clust1" class="cluster">
<title>cluster_EmployeeModule</title>
<polygon fill="none" stroke="black" stroke-dasharray="1,5" points="8,-70 8,-195 10479,-195 10479,-70 8,-70"/>
</g>
<g id="clust46" class="cluster">
<title>cluster_EmployeeModule_providers</title>
<polygon fill="none" stroke="black" points="8437,-78 8437,-130 10471,-130 10471,-78 8437,-78"/>
</g>
<g id="clust2" class="cluster">
<title>cluster_EmployeeModule_declarations</title>
<polygon fill="none" stroke="black" points="318,-78 318,-130 8429,-130 8429,-78 318,-78"/>
</g>
<g id="clust43" class="cluster">
<title>cluster_EmployeeModule_imports</title>
<polygon fill="none" stroke="black" points="16,-78 16,-130 310,-130 310,-78 16,-78"/>
</g>
<!-- EmployeeComponent -->
<g id="node1" class="node">
<title>EmployeeComponent</title>
<polygon fill="#ffffb3" stroke="black" points="8421.1,-122 8282.9,-122 8282.9,-86 8421.1,-86 8421.1,-122"/>
<text text-anchor="middle" x="8352" y="-99.8" font-family="Times,serif" font-size="14.00">EmployeeComponent</text>
</g>
<!-- EmployeeModule -->
<g id="node41" class="node">
<title>EmployeeModule</title>
<polygon fill="#8dd3c7" stroke="black" points="5772.31,-187 5769.31,-191 5748.31,-191 5745.31,-187 5655.69,-187 5655.69,-151 5772.31,-151 5772.31,-187"/>
<text text-anchor="middle" x="5714" y="-164.8" font-family="Times,serif" font-size="14.00">EmployeeModule</text>
</g>
<!-- EmployeeComponent&#45;&gt;EmployeeModule -->
<g id="edge1" class="edge">
<title>EmployeeComponent&#45;&gt;EmployeeModule</title>
<path fill="none" stroke="black" d="M8352,-122.22C8352,-142.37 8352,-172 8352,-172 8352,-172 5782.17,-172 5782.17,-172"/>
<polygon fill="black" stroke="black" points="5782.17,-168.5 5772.17,-172 5782.17,-175.5 5782.17,-168.5"/>
</g>
<!-- EmployeesComponent -->
<g id="node2" class="node">
<title>EmployeesComponent</title>
<polygon fill="#ffffb3" stroke="black" points="8264.54,-122 8121.46,-122 8121.46,-86 8264.54,-86 8264.54,-122"/>
<text text-anchor="middle" x="8193" y="-99.8" font-family="Times,serif" font-size="14.00">EmployeesComponent</text>
</g>
<!-- EmployeesComponent&#45;&gt;EmployeeModule -->
<g id="edge2" class="edge">
<title>EmployeesComponent&#45;&gt;EmployeeModule</title>
<path fill="none" stroke="black" d="M8193,-122.31C8193,-142.15 8193,-171 8193,-171 8193,-171 5782.23,-171 5782.23,-171"/>
<polygon fill="black" stroke="black" points="5782.23,-167.5 5772.23,-171 5782.23,-174.5 5782.23,-167.5"/>
</g>
<!-- AttendanceComponent -->
<g id="node3" class="node">
<title>AttendanceComponent</title>
<polygon fill="#ffffb3" stroke="black" points="8103.58,-122 7958.42,-122 7958.42,-86 8103.58,-86 8103.58,-122"/>
<text text-anchor="middle" x="8031" y="-99.8" font-family="Times,serif" font-size="14.00">AttendanceComponent</text>
</g>
<!-- AttendanceComponent&#45;&gt;EmployeeModule -->
<g id="edge3" class="edge">
<title>AttendanceComponent&#45;&gt;EmployeeModule</title>
<path fill="none" stroke="black" d="M8031,-122.11C8031,-141.34 8031,-169 8031,-169 8031,-169 5782.43,-169 5782.43,-169"/>
<polygon fill="black" stroke="black" points="5782.43,-165.5 5772.43,-169 5782.43,-172.5 5782.43,-165.5"/>
</g>
<!-- RequestComponent -->
<g id="node4" class="node">
<title>RequestComponent</title>
<polygon fill="#ffffb3" stroke="black" points="7940.43,-122 7813.57,-122 7813.57,-86 7940.43,-86 7940.43,-122"/>
<text text-anchor="middle" x="7877" y="-99.8" font-family="Times,serif" font-size="14.00">RequestComponent</text>
</g>
<!-- RequestComponent&#45;&gt;EmployeeModule -->
<g id="edge4" class="edge">
<title>RequestComponent&#45;&gt;EmployeeModule</title>
<path fill="none" stroke="black" d="M7877,-122.17C7877,-141.09 7877,-168 7877,-168 7877,-168 5782.41,-168 5782.41,-168"/>
<polygon fill="black" stroke="black" points="5782.41,-164.5 5772.41,-168 5782.41,-171.5 5782.41,-164.5"/>
</g>
<!-- PayrollComponent -->
<g id="node5" class="node">
<title>PayrollComponent</title>
<polygon fill="#ffffb3" stroke="black" points="7795.77,-122 7674.23,-122 7674.23,-86 7795.77,-86 7795.77,-122"/>
<text text-anchor="middle" x="7735" y="-99.8" font-family="Times,serif" font-size="14.00">PayrollComponent</text>
</g>
<!-- PayrollComponent&#45;&gt;EmployeeModule -->
<g id="edge5" class="edge">
<title>PayrollComponent&#45;&gt;EmployeeModule</title>
<path fill="none" stroke="black" d="M7735,-122.22C7735,-140.83 7735,-167 7735,-167 7735,-167 5782.31,-167 5782.31,-167"/>
<polygon fill="black" stroke="black" points="5782.31,-163.5 5772.31,-167 5782.31,-170.5 5782.31,-163.5"/>
</g>
<!-- AllEmployeeComponent -->
<g id="node6" class="node">
<title>AllEmployeeComponent</title>
<polygon fill="#ffffb3" stroke="black" points="7655.98,-122 7500.02,-122 7500.02,-86 7655.98,-86 7655.98,-122"/>
<text text-anchor="middle" x="7578" y="-99.8" font-family="Times,serif" font-size="14.00">AllEmployeeComponent</text>
</g>
<!-- AllEmployeeComponent&#45;&gt;EmployeeModule -->
<g id="edge6" class="edge">
<title>AllEmployeeComponent&#45;&gt;EmployeeModule</title>
<path fill="none" stroke="black" d="M7578,-122.3C7578,-140.27 7578,-165 7578,-165 7578,-165 5782.35,-165 5782.35,-165"/>
<polygon fill="black" stroke="black" points="5782.35,-161.5 5772.35,-165 5782.35,-168.5 5782.35,-161.5"/>
</g>
<!-- ViewEmployeeComponent -->
<g id="node7" class="node">
<title>ViewEmployeeComponent</title>
<polygon fill="#ffffb3" stroke="black" points="7482.41,-122 7313.59,-122 7313.59,-86 7482.41,-86 7482.41,-122"/>
<text text-anchor="middle" x="7398" y="-99.8" font-family="Times,serif" font-size="14.00">ViewEmployeeComponent</text>
</g>
<!-- ViewEmployeeComponent&#45;&gt;EmployeeModule -->
<g id="edge7" class="edge">
<title>ViewEmployeeComponent&#45;&gt;EmployeeModule</title>
<path fill="none" stroke="black" d="M7398,-122C7398,-139.68 7398,-164 7398,-164 7398,-164 5782.46,-164 5782.46,-164"/>
<polygon fill="black" stroke="black" points="5782.46,-160.5 5772.46,-164 5782.46,-167.5 5782.46,-160.5"/>
</g>
<!-- LeavesComponent -->
<g id="node8" class="node">
<title>LeavesComponent</title>
<polygon fill="#ffffb3" stroke="black" points="7295.47,-122 7174.53,-122 7174.53,-86 7295.47,-86 7295.47,-122"/>
<text text-anchor="middle" x="7235" y="-99.8" font-family="Times,serif" font-size="14.00">LeavesComponent</text>
</g>
<!-- LeavesComponent&#45;&gt;EmployeeModule -->
<g id="edge8" class="edge">
<title>LeavesComponent&#45;&gt;EmployeeModule</title>
<path fill="none" stroke="black" d="M7235,-122.02C7235,-139.37 7235,-163 7235,-163 7235,-163 5782.23,-163 5782.23,-163"/>
<polygon fill="black" stroke="black" points="5782.23,-159.5 5772.23,-163 5782.23,-166.5 5782.23,-159.5"/>
</g>
<!-- UserMappingComponent -->
<g id="node9" class="node">
<title>UserMappingComponent</title>
<polygon fill="#ffffb3" stroke="black" points="7156.31,-122 6997.69,-122 6997.69,-86 7156.31,-86 7156.31,-122"/>
<text text-anchor="middle" x="7077" y="-99.8" font-family="Times,serif" font-size="14.00">UserMappingComponent</text>
</g>
<!-- UserMappingComponent&#45;&gt;EmployeeModule -->
<g id="edge9" class="edge">
<title>UserMappingComponent&#45;&gt;EmployeeModule</title>
<path fill="none" stroke="black" d="M7077,-122.04C7077,-138.73 7077,-161 7077,-161 7077,-161 5782.57,-161 5782.57,-161"/>
<polygon fill="black" stroke="black" points="5782.57,-157.5 5772.57,-161 5782.57,-164.5 5782.57,-157.5"/>
</g>
<!-- ShiftCalendarComponent -->
<g id="node10" class="node">
<title>ShiftCalendarComponent</title>
<polygon fill="#ffffb3" stroke="black" points="6979.59,-122 6820.41,-122 6820.41,-86 6979.59,-86 6979.59,-122"/>
<text text-anchor="middle" x="6900" y="-99.8" font-family="Times,serif" font-size="14.00">ShiftCalendarComponent</text>
</g>
<!-- ShiftCalendarComponent&#45;&gt;EmployeeModule -->
<g id="edge10" class="edge">
<title>ShiftCalendarComponent&#45;&gt;EmployeeModule</title>
<path fill="none" stroke="black" d="M6900,-122.03C6900,-138.4 6900,-160 6900,-160 6900,-160 5782.41,-160 5782.41,-160"/>
<polygon fill="black" stroke="black" points="5782.41,-156.5 5772.41,-160 5782.41,-163.5 5782.41,-156.5"/>
</g>
<!-- ShiftCalendarLandingComponent -->
<g id="node11" class="node">
<title>ShiftCalendarLandingComponent</title>
<polygon fill="#ffffb3" stroke="black" points="6802.75,-122 6597.25,-122 6597.25,-86 6802.75,-86 6802.75,-122"/>
<text text-anchor="middle" x="6700" y="-99.8" font-family="Times,serif" font-size="14.00">ShiftCalendarLandingComponent</text>
</g>
<!-- ShiftCalendarLandingComponent&#45;&gt;EmployeeModule -->
<g id="edge11" class="edge">
<title>ShiftCalendarLandingComponent&#45;&gt;EmployeeModule</title>
<path fill="none" stroke="black" d="M6700,-122.28C6700,-137.95 6700,-158 6700,-158 6700,-158 5782.36,-158 5782.36,-158"/>
<polygon fill="black" stroke="black" points="5782.36,-154.5 5772.36,-158 5782.36,-161.5 5782.36,-154.5"/>
</g>
<!-- ShiftSchedularComponent -->
<g id="node12" class="node">
<title>ShiftSchedularComponent</title>
<polygon fill="#ffffb3" stroke="black" points="6579.04,-122 6414.96,-122 6414.96,-86 6579.04,-86 6579.04,-122"/>
<text text-anchor="middle" x="6497" y="-99.8" font-family="Times,serif" font-size="14.00">ShiftSchedularComponent</text>
</g>
<!-- ShiftSchedularComponent&#45;&gt;EmployeeModule -->
<g id="edge12" class="edge">
<title>ShiftSchedularComponent&#45;&gt;EmployeeModule</title>
<path fill="none" stroke="black" d="M6497,-122.24C6497,-137.57 6497,-157 6497,-157 6497,-157 5782.21,-157 5782.21,-157"/>
<polygon fill="black" stroke="black" points="5782.21,-153.5 5772.21,-157 5782.21,-160.5 5782.21,-153.5"/>
</g>
<!-- SortPipe -->
<g id="node13" class="node">
<title>SortPipe</title>
<polygon fill="#ffffb3" stroke="black" points="6397.22,-122 6332.78,-122 6332.78,-86 6397.22,-86 6397.22,-122"/>
<text text-anchor="middle" x="6365" y="-99.8" font-family="Times,serif" font-size="14.00">SortPipe</text>
</g>
<!-- SortPipe&#45;&gt;EmployeeModule -->
<g id="edge13" class="edge">
<title>SortPipe&#45;&gt;EmployeeModule</title>
<path fill="none" stroke="black" d="M6365,-122.19C6365,-137.18 6365,-156 6365,-156 6365,-156 5782.34,-156 5782.34,-156"/>
<polygon fill="black" stroke="black" points="5782.34,-152.5 5772.34,-156 5782.34,-159.5 5782.34,-152.5"/>
</g>
<!-- ShiftCalenderActionRendererComponent -->
<g id="node14" class="node">
<title>ShiftCalenderActionRendererComponent</title>
<polygon fill="#ffffb3" stroke="black" points="6315.49,-122 6066.51,-122 6066.51,-86 6315.49,-86 6315.49,-122"/>
<text text-anchor="middle" x="6191" y="-99.8" font-family="Times,serif" font-size="14.00">ShiftCalenderActionRendererComponent</text>
</g>
<!-- ShiftCalenderActionRendererComponent&#45;&gt;EmployeeModule -->
<g id="edge14" class="edge">
<title>ShiftCalenderActionRendererComponent&#45;&gt;EmployeeModule</title>
<path fill="none" stroke="black" d="M6191,-122.05C6191,-136.37 6191,-154 6191,-154 6191,-154 5782.49,-154 5782.49,-154"/>
<polygon fill="black" stroke="black" points="5782.49,-150.5 5772.49,-154 5782.49,-157.5 5782.49,-150.5"/>
</g>
<!-- EmpProfileComponent -->
<g id="node15" class="node">
<title>EmpProfileComponent</title>
<polygon fill="#ffffb3" stroke="black" points="6048.88,-122 5903.12,-122 5903.12,-86 6048.88,-86 6048.88,-122"/>
<text text-anchor="middle" x="5976" y="-99.8" font-family="Times,serif" font-size="14.00">EmpProfileComponent</text>
</g>
<!-- EmpProfileComponent&#45;&gt;EmployeeModule -->
<g id="edge15" class="edge">
<title>EmpProfileComponent&#45;&gt;EmployeeModule</title>
<path fill="none" stroke="black" d="M5976,-122.25C5976,-136.18 5976,-153 5976,-153 5976,-153 5782.47,-153 5782.47,-153"/>
<polygon fill="black" stroke="black" points="5782.47,-149.5 5772.47,-153 5782.47,-156.5 5782.47,-149.5"/>
</g>
<!-- EditEmployeeComponent -->
<g id="node16" class="node">
<title>EditEmployeeComponent</title>
<polygon fill="#ffffb3" stroke="black" points="5884.93,-122 5723.07,-122 5723.07,-86 5884.93,-86 5884.93,-122"/>
<text text-anchor="middle" x="5804" y="-99.8" font-family="Times,serif" font-size="14.00">EditEmployeeComponent</text>
</g>
<!-- EditEmployeeComponent&#45;&gt;EmployeeModule -->
<g id="edge16" class="edge">
<title>EditEmployeeComponent&#45;&gt;EmployeeModule</title>
<path fill="none" stroke="black" d="M5747.72,-122.11C5747.72,-122.11 5747.72,-140.99 5747.72,-140.99"/>
<polygon fill="black" stroke="black" points="5744.22,-140.99 5747.72,-150.99 5751.22,-140.99 5744.22,-140.99"/>
</g>
<!-- ViewCalenderComponent -->
<g id="node17" class="node">
<title>ViewCalenderComponent</title>
<polygon fill="#ffffb3" stroke="black" points="5705.18,-122 5542.82,-122 5542.82,-86 5705.18,-86 5705.18,-122"/>
<text text-anchor="middle" x="5624" y="-99.8" font-family="Times,serif" font-size="14.00">ViewCalenderComponent</text>
</g>
<!-- ViewCalenderComponent&#45;&gt;EmployeeModule -->
<g id="edge17" class="edge">
<title>ViewCalenderComponent&#45;&gt;EmployeeModule</title>
<path fill="none" stroke="black" d="M5680.47,-122.11C5680.47,-122.11 5680.47,-140.99 5680.47,-140.99"/>
<polygon fill="black" stroke="black" points="5676.97,-140.99 5680.47,-150.99 5683.97,-140.99 5676.97,-140.99"/>
</g>
<!-- EmployeeActionCellRendererComponent -->
<g id="node18" class="node">
<title>EmployeeActionCellRendererComponent</title>
<polygon fill="#ffffb3" stroke="black" points="5524.33,-122 5273.67,-122 5273.67,-86 5524.33,-86 5524.33,-122"/>
<text text-anchor="middle" x="5399" y="-99.8" font-family="Times,serif" font-size="14.00">EmployeeActionCellRendererComponent</text>
</g>
<!-- EmployeeActionCellRendererComponent&#45;&gt;EmployeeModule -->
<g id="edge18" class="edge">
<title>EmployeeActionCellRendererComponent&#45;&gt;EmployeeModule</title>
<path fill="none" stroke="black" d="M5399,-122.25C5399,-136.18 5399,-153 5399,-153 5399,-153 5645.49,-153 5645.49,-153"/>
<polygon fill="black" stroke="black" points="5645.49,-156.5 5655.49,-153 5645.49,-149.5 5645.49,-156.5"/>
</g>
<!-- AttendanceCellRendererActionsComponent -->
<g id="node19" class="node">
<title>AttendanceCellRendererActionsComponent</title>
<polygon fill="#ffffb3" stroke="black" points="5255.76,-122 4992.24,-122 4992.24,-86 5255.76,-86 5255.76,-122"/>
<text text-anchor="middle" x="5124" y="-99.8" font-family="Times,serif" font-size="14.00">AttendanceCellRendererActionsComponent</text>
</g>
<!-- AttendanceCellRendererActionsComponent&#45;&gt;EmployeeModule -->
<g id="edge19" class="edge">
<title>AttendanceCellRendererActionsComponent&#45;&gt;EmployeeModule</title>
<path fill="none" stroke="black" d="M5124,-122.05C5124,-136.37 5124,-154 5124,-154 5124,-154 5645.81,-154 5645.81,-154"/>
<polygon fill="black" stroke="black" points="5645.81,-157.5 5655.81,-154 5645.81,-150.5 5645.81,-157.5"/>
</g>
<!-- PayrollActionCellRendererComponent -->
<g id="node20" class="node">
<title>PayrollActionCellRendererComponent</title>
<polygon fill="#ffffb3" stroke="black" points="4974.01,-122 4739.99,-122 4739.99,-86 4974.01,-86 4974.01,-122"/>
<text text-anchor="middle" x="4857" y="-99.8" font-family="Times,serif" font-size="14.00">PayrollActionCellRendererComponent</text>
</g>
<!-- PayrollActionCellRendererComponent&#45;&gt;EmployeeModule -->
<g id="edge20" class="edge">
<title>PayrollActionCellRendererComponent&#45;&gt;EmployeeModule</title>
<path fill="none" stroke="black" d="M4857,-122.19C4857,-137.18 4857,-156 4857,-156 4857,-156 5645.77,-156 5645.77,-156"/>
<polygon fill="black" stroke="black" points="5645.77,-159.5 5655.77,-156 5645.77,-152.5 5645.77,-159.5"/>
</g>
<!-- AllPayrollComponent -->
<g id="node21" class="node">
<title>AllPayrollComponent</title>
<polygon fill="#ffffb3" stroke="black" points="4721.66,-122 4582.34,-122 4582.34,-86 4721.66,-86 4721.66,-122"/>
<text text-anchor="middle" x="4652" y="-99.8" font-family="Times,serif" font-size="14.00">AllPayrollComponent</text>
</g>
<!-- AllPayrollComponent&#45;&gt;EmployeeModule -->
<g id="edge21" class="edge">
<title>AllPayrollComponent&#45;&gt;EmployeeModule</title>
<path fill="none" stroke="black" d="M4652,-122.24C4652,-137.57 4652,-157 4652,-157 4652,-157 5645.77,-157 5645.77,-157"/>
<polygon fill="black" stroke="black" points="5645.77,-160.5 5655.77,-157 5645.77,-153.5 5645.77,-160.5"/>
</g>
<!-- NewPayrollComponent -->
<g id="node22" class="node">
<title>NewPayrollComponent</title>
<polygon fill="#ffffb3" stroke="black" points="4564.2,-122 4415.8,-122 4415.8,-86 4564.2,-86 4564.2,-122"/>
<text text-anchor="middle" x="4490" y="-99.8" font-family="Times,serif" font-size="14.00">NewPayrollComponent</text>
</g>
<!-- NewPayrollComponent&#45;&gt;EmployeeModule -->
<g id="edge22" class="edge">
<title>NewPayrollComponent&#45;&gt;EmployeeModule</title>
<path fill="none" stroke="black" d="M4490,-122.28C4490,-137.95 4490,-158 4490,-158 4490,-158 5645.79,-158 5645.79,-158"/>
<polygon fill="black" stroke="black" points="5645.79,-161.5 5655.79,-158 5645.79,-154.5 5645.79,-161.5"/>
</g>
<!-- NewPayrollActionCellRendererComponent -->
<g id="node23" class="node">
<title>NewPayrollActionCellRendererComponent</title>
<polygon fill="#ffffb3" stroke="black" points="4397.44,-122 4136.56,-122 4136.56,-86 4397.44,-86 4397.44,-122"/>
<text text-anchor="middle" x="4267" y="-99.8" font-family="Times,serif" font-size="14.00">NewPayrollActionCellRendererComponent</text>
</g>
<!-- NewPayrollActionCellRendererComponent&#45;&gt;EmployeeModule -->
<g id="edge23" class="edge">
<title>NewPayrollActionCellRendererComponent&#45;&gt;EmployeeModule</title>
<path fill="none" stroke="black" d="M4267,-122.03C4267,-138.4 4267,-160 4267,-160 4267,-160 5645.48,-160 5645.48,-160"/>
<polygon fill="black" stroke="black" points="5645.48,-163.5 5655.48,-160 5645.48,-156.5 5645.48,-163.5"/>
</g>
<!-- RequestActionCellRendererComponent -->
<g id="node24" class="node">
<title>RequestActionCellRendererComponent</title>
<polygon fill="#ffffb3" stroke="black" points="4118.67,-122 3879.33,-122 3879.33,-86 4118.67,-86 4118.67,-122"/>
<text text-anchor="middle" x="3999" y="-99.8" font-family="Times,serif" font-size="14.00">RequestActionCellRendererComponent</text>
</g>
<!-- RequestActionCellRendererComponent&#45;&gt;EmployeeModule -->
<g id="edge24" class="edge">
<title>RequestActionCellRendererComponent&#45;&gt;EmployeeModule</title>
<path fill="none" stroke="black" d="M3999,-122.04C3999,-138.73 3999,-161 3999,-161 3999,-161 5645.46,-161 5645.46,-161"/>
<polygon fill="black" stroke="black" points="5645.46,-164.5 5655.46,-161 5645.46,-157.5 5645.46,-164.5"/>
</g>
<!-- AddEmployeeComponent -->
<g id="node25" class="node">
<title>AddEmployeeComponent</title>
<polygon fill="#ffffb3" stroke="black" points="3861.2,-122 3698.8,-122 3698.8,-86 3861.2,-86 3861.2,-122"/>
<text text-anchor="middle" x="3780" y="-99.8" font-family="Times,serif" font-size="14.00">AddEmployeeComponent</text>
</g>
<!-- AddEmployeeComponent&#45;&gt;EmployeeModule -->
<g id="edge25" class="edge">
<title>AddEmployeeComponent&#45;&gt;EmployeeModule</title>
<path fill="none" stroke="black" d="M3780,-122.02C3780,-139.37 3780,-163 3780,-163 3780,-163 5645.59,-163 5645.59,-163"/>
<polygon fill="black" stroke="black" points="5645.59,-166.5 5655.59,-163 5645.59,-159.5 5645.59,-166.5"/>
</g>
<!-- DocumentActionCellComponent -->
<g id="node26" class="node">
<title>DocumentActionCellComponent</title>
<polygon fill="#ffffb3" stroke="black" points="3680.58,-122 3479.42,-122 3479.42,-86 3680.58,-86 3680.58,-122"/>
<text text-anchor="middle" x="3580" y="-99.8" font-family="Times,serif" font-size="14.00">DocumentActionCellComponent</text>
</g>
<!-- DocumentActionCellComponent&#45;&gt;EmployeeModule -->
<g id="edge26" class="edge">
<title>DocumentActionCellComponent&#45;&gt;EmployeeModule</title>
<path fill="none" stroke="black" d="M3580,-122C3580,-139.68 3580,-164 3580,-164 3580,-164 5645.81,-164 5645.81,-164"/>
<polygon fill="black" stroke="black" points="5645.81,-167.5 5655.81,-164 5645.81,-160.5 5645.81,-167.5"/>
</g>
<!-- EditDocumentActionCellComponent -->
<g id="node27" class="node">
<title>EditDocumentActionCellComponent</title>
<polygon fill="#ffffb3" stroke="black" points="3461.42,-122 3236.58,-122 3236.58,-86 3461.42,-86 3461.42,-122"/>
<text text-anchor="middle" x="3349" y="-99.8" font-family="Times,serif" font-size="14.00">EditDocumentActionCellComponent</text>
</g>
<!-- EditDocumentActionCellComponent&#45;&gt;EmployeeModule -->
<g id="edge27" class="edge">
<title>EditDocumentActionCellComponent&#45;&gt;EmployeeModule</title>
<path fill="none" stroke="black" d="M3349,-122.3C3349,-140.27 3349,-165 3349,-165 3349,-165 5645.83,-165 5645.83,-165"/>
<polygon fill="black" stroke="black" points="5645.83,-168.5 5655.83,-165 5645.83,-161.5 5645.83,-168.5"/>
</g>
<!-- LeavesActionCellComponent -->
<g id="node28" class="node">
<title>LeavesActionCellComponent</title>
<polygon fill="#ffffb3" stroke="black" points="3219.41,-122 3036.59,-122 3036.59,-86 3219.41,-86 3219.41,-122"/>
<text text-anchor="middle" x="3128" y="-99.8" font-family="Times,serif" font-size="14.00">LeavesActionCellComponent</text>
</g>
<!-- LeavesActionCellComponent&#45;&gt;EmployeeModule -->
<g id="edge28" class="edge">
<title>LeavesActionCellComponent&#45;&gt;EmployeeModule</title>
<path fill="none" stroke="black" d="M3128,-122.22C3128,-140.83 3128,-167 3128,-167 3128,-167 5645.75,-167 5645.75,-167"/>
<polygon fill="black" stroke="black" points="5645.75,-170.5 5655.75,-167 5645.75,-163.5 5645.75,-170.5"/>
</g>
<!-- ProfileActionCellComponent -->
<g id="node29" class="node">
<title>ProfileActionCellComponent</title>
<polygon fill="#ffffb3" stroke="black" points="3018.37,-122 2837.63,-122 2837.63,-86 3018.37,-86 3018.37,-122"/>
<text text-anchor="middle" x="2928" y="-99.8" font-family="Times,serif" font-size="14.00">ProfileActionCellComponent</text>
</g>
<!-- ProfileActionCellComponent&#45;&gt;EmployeeModule -->
<g id="edge29" class="edge">
<title>ProfileActionCellComponent&#45;&gt;EmployeeModule</title>
<path fill="none" stroke="black" d="M2928,-122.17C2928,-141.09 2928,-168 2928,-168 2928,-168 5645.81,-168 5645.81,-168"/>
<polygon fill="black" stroke="black" points="5645.81,-171.5 5655.81,-168 5645.81,-164.5 5645.81,-171.5"/>
</g>
<!-- EditShiftActioncellComponent -->
<g id="node30" class="node">
<title>EditShiftActioncellComponent</title>
<polygon fill="#ffffb3" stroke="black" points="2819.2,-122 2628.8,-122 2628.8,-86 2819.2,-86 2819.2,-122"/>
<text text-anchor="middle" x="2724" y="-99.8" font-family="Times,serif" font-size="14.00">EditShiftActioncellComponent</text>
</g>
<!-- EditShiftActioncellComponent&#45;&gt;EmployeeModule -->
<g id="edge30" class="edge">
<title>EditShiftActioncellComponent&#45;&gt;EmployeeModule</title>
<path fill="none" stroke="black" d="M2724,-122.11C2724,-141.34 2724,-169 2724,-169 2724,-169 5645.61,-169 5645.61,-169"/>
<polygon fill="black" stroke="black" points="5645.61,-172.5 5655.61,-169 5645.61,-165.5 5645.61,-172.5"/>
</g>
<!-- ViewShiftActionCellComponent -->
<g id="node31" class="node">
<title>ViewShiftActionCellComponent</title>
<polygon fill="#ffffb3" stroke="black" points="2611.31,-122 2410.69,-122 2410.69,-86 2611.31,-86 2611.31,-122"/>
<text text-anchor="middle" x="2511" y="-99.8" font-family="Times,serif" font-size="14.00">ViewShiftActionCellComponent</text>
</g>
<!-- ViewShiftActionCellComponent&#45;&gt;EmployeeModule -->
<g id="edge31" class="edge">
<title>ViewShiftActionCellComponent&#45;&gt;EmployeeModule</title>
<path fill="none" stroke="black" d="M2511,-122.31C2511,-142.15 2511,-171 2511,-171 2511,-171 5645.67,-171 5645.67,-171"/>
<polygon fill="black" stroke="black" points="5645.67,-174.5 5655.67,-171 5645.67,-167.5 5645.67,-174.5"/>
</g>
<!-- ViewDocumentActionCellComponent -->
<g id="node32" class="node">
<title>ViewDocumentActionCellComponent</title>
<polygon fill="#ffffb3" stroke="black" points="2392.9,-122 2161.1,-122 2161.1,-86 2392.9,-86 2392.9,-122"/>
<text text-anchor="middle" x="2277" y="-99.8" font-family="Times,serif" font-size="14.00">ViewDocumentActionCellComponent</text>
</g>
<!-- ViewDocumentActionCellComponent&#45;&gt;EmployeeModule -->
<g id="edge32" class="edge">
<title>ViewDocumentActionCellComponent&#45;&gt;EmployeeModule</title>
<path fill="none" stroke="black" d="M2277,-122.22C2277,-142.37 2277,-172 2277,-172 2277,-172 5645.79,-172 5645.79,-172"/>
<polygon fill="black" stroke="black" points="5645.79,-175.5 5655.79,-172 5645.79,-168.5 5645.79,-175.5"/>
</g>
<!-- MyleavesActionCellComponent -->
<g id="node33" class="node">
<title>MyleavesActionCellComponent</title>
<polygon fill="#ffffb3" stroke="black" points="2143.69,-122 1946.31,-122 1946.31,-86 2143.69,-86 2143.69,-122"/>
<text text-anchor="middle" x="2045" y="-99.8" font-family="Times,serif" font-size="14.00">MyleavesActionCellComponent</text>
</g>
<!-- MyleavesActionCellComponent&#45;&gt;EmployeeModule -->
<g id="edge33" class="edge">
<title>MyleavesActionCellComponent&#45;&gt;EmployeeModule</title>
<path fill="none" stroke="black" d="M2045,-122.03C2045,-142.77 2045,-174 2045,-174 2045,-174 5645.63,-174 5645.63,-174"/>
<polygon fill="black" stroke="black" points="5645.63,-177.5 5655.63,-174 5645.63,-170.5 5645.63,-177.5"/>
</g>
<!-- MyprofileActionCellComponent -->
<g id="node34" class="node">
<title>MyprofileActionCellComponent</title>
<polygon fill="#ffffb3" stroke="black" points="1928.53,-122 1729.47,-122 1729.47,-86 1928.53,-86 1928.53,-122"/>
<text text-anchor="middle" x="1829" y="-99.8" font-family="Times,serif" font-size="14.00">MyprofileActionCellComponent</text>
</g>
<!-- MyprofileActionCellComponent&#45;&gt;EmployeeModule -->
<g id="edge34" class="edge">
<title>MyprofileActionCellComponent&#45;&gt;EmployeeModule</title>
<path fill="none" stroke="black" d="M1829,-122.28C1829,-143.32 1829,-175 1829,-175 1829,-175 5645.68,-175 5645.68,-175"/>
<polygon fill="black" stroke="black" points="5645.68,-178.5 5655.68,-175 5645.68,-171.5 5645.68,-178.5"/>
</g>
<!-- MyshiftsActionCellComponent -->
<g id="node35" class="node">
<title>MyshiftsActionCellComponent</title>
<polygon fill="#ffffb3" stroke="black" points="1711.04,-122 1518.96,-122 1518.96,-86 1711.04,-86 1711.04,-122"/>
<text text-anchor="middle" x="1615" y="-99.8" font-family="Times,serif" font-size="14.00">MyshiftsActionCellComponent</text>
</g>
<!-- MyshiftsActionCellComponent&#45;&gt;EmployeeModule -->
<g id="edge35" class="edge">
<title>MyshiftsActionCellComponent&#45;&gt;EmployeeModule</title>
<path fill="none" stroke="black" d="M1615,-122.17C1615,-143.5 1615,-176 1615,-176 1615,-176 5645.66,-176 5645.66,-176"/>
<polygon fill="black" stroke="black" points="5645.66,-179.5 5655.66,-176 5645.66,-172.5 5645.66,-179.5"/>
</g>
<!-- MyprofileActionCellRendererComponent -->
<g id="node36" class="node">
<title>MyprofileActionCellRendererComponent</title>
<polygon fill="#ffffb3" stroke="black" points="1500.33,-122 1249.67,-122 1249.67,-86 1500.33,-86 1500.33,-122"/>
<text text-anchor="middle" x="1375" y="-99.8" font-family="Times,serif" font-size="14.00">MyprofileActionCellRendererComponent</text>
</g>
<!-- MyprofileActionCellRendererComponent&#45;&gt;EmployeeModule -->
<g id="edge36" class="edge">
<title>MyprofileActionCellRendererComponent&#45;&gt;EmployeeModule</title>
<path fill="none" stroke="black" d="M1375,-122.29C1375,-144.21 1375,-178 1375,-178 1375,-178 5645.54,-178 5645.54,-178"/>
<polygon fill="black" stroke="black" points="5645.54,-181.5 5655.54,-178 5645.54,-174.5 5645.54,-181.5"/>
</g>
<!-- MyprofileShiftActionCellComponent -->
<g id="node37" class="node">
<title>MyprofileShiftActionCellComponent</title>
<polygon fill="#ffffb3" stroke="black" points="1231.25,-122 1004.75,-122 1004.75,-86 1231.25,-86 1231.25,-122"/>
<text text-anchor="middle" x="1118" y="-99.8" font-family="Times,serif" font-size="14.00">MyprofileShiftActionCellComponent</text>
</g>
<!-- MyprofileShiftActionCellComponent&#45;&gt;EmployeeModule -->
<g id="edge37" class="edge">
<title>MyprofileShiftActionCellComponent&#45;&gt;EmployeeModule</title>
<path fill="none" stroke="black" d="M1118,-122.16C1118,-144.35 1118,-179 1118,-179 1118,-179 5645.47,-179 5645.47,-179"/>
<polygon fill="black" stroke="black" points="5645.47,-182.5 5655.47,-179 5645.47,-175.5 5645.47,-182.5"/>
</g>
<!-- ChangeEmpPinComponent -->
<g id="node38" class="node">
<title>ChangeEmpPinComponent</title>
<polygon fill="#ffffb3" stroke="black" points="986.71,-122 817.29,-122 817.29,-86 986.71,-86 986.71,-122"/>
<text text-anchor="middle" x="902" y="-99.8" font-family="Times,serif" font-size="14.00">ChangeEmpPinComponent</text>
</g>
<!-- ChangeEmpPinComponent&#45;&gt;EmployeeModule -->
<g id="edge38" class="edge">
<title>ChangeEmpPinComponent&#45;&gt;EmployeeModule</title>
<path fill="none" stroke="black" d="M902,-122.25C902,-145.02 902,-181 902,-181 902,-181 5645.75,-181 5645.75,-181"/>
<polygon fill="black" stroke="black" points="5645.75,-184.5 5655.75,-181 5645.75,-177.5 5645.75,-184.5"/>
</g>
<!-- ShiftCalenderViewAllComponent -->
<g id="node39" class="node">
<title>ShiftCalenderViewAllComponent</title>
<polygon fill="#ffffb3" stroke="black" points="799.79,-122 592.21,-122 592.21,-86 799.79,-86 799.79,-122"/>
<text text-anchor="middle" x="696" y="-99.8" font-family="Times,serif" font-size="14.00">ShiftCalenderViewAllComponent</text>
</g>
<!-- ShiftCalenderViewAllComponent&#45;&gt;EmployeeModule -->
<g id="edge39" class="edge">
<title>ShiftCalenderViewAllComponent&#45;&gt;EmployeeModule</title>
<path fill="none" stroke="black" d="M696,-122.09C696,-145.13 696,-182 696,-182 696,-182 5645.47,-182 5645.47,-182"/>
<polygon fill="black" stroke="black" points="5645.47,-185.5 5655.47,-182 5645.47,-178.5 5645.47,-185.5"/>
</g>
<!-- ShiftCalenderViewAllRenderComponent -->
<g id="node40" class="node">
<title>ShiftCalenderViewAllRenderComponent</title>
<polygon fill="#ffffb3" stroke="black" points="573.72,-122 326.28,-122 326.28,-86 573.72,-86 573.72,-122"/>
<text text-anchor="middle" x="450" y="-99.8" font-family="Times,serif" font-size="14.00">ShiftCalenderViewAllRenderComponent</text>
</g>
<!-- ShiftCalenderViewAllRenderComponent&#45;&gt;EmployeeModule -->
<g id="edge40" class="edge">
<title>ShiftCalenderViewAllRenderComponent&#45;&gt;EmployeeModule</title>
<path fill="none" stroke="black" d="M450,-122.32C450,-145.66 450,-183 450,-183 450,-183 5645.78,-183 5645.78,-183"/>
<polygon fill="black" stroke="black" points="5645.78,-186.5 5655.78,-183 5645.78,-179.5 5645.78,-186.5"/>
</g>
<!-- EmployeeRoutingModule -->
<g id="node42" class="node">
<title>EmployeeRoutingModule</title>
<polygon fill="#8dd3c7" stroke="black" points="301.93,-122 298.93,-126 277.93,-126 274.93,-122 140.07,-122 140.07,-86 301.93,-86 301.93,-122"/>
<text text-anchor="middle" x="221" y="-99.8" font-family="Times,serif" font-size="14.00">EmployeeRoutingModule</text>
</g>
<!-- EmployeeRoutingModule&#45;&gt;EmployeeModule -->
<g id="edge41" class="edge">
<title>EmployeeRoutingModule&#45;&gt;EmployeeModule</title>
<path fill="none" stroke="black" d="M221,-122.38C221,-146.28 221,-185 221,-185 221,-185 5645.57,-185 5645.57,-185"/>
<polygon fill="black" stroke="black" points="5645.57,-188.5 5655.57,-185 5645.57,-181.5 5645.57,-188.5"/>
</g>
<!-- SharedModule -->
<g id="node43" class="node">
<title>SharedModule</title>
<polygon fill="#8dd3c7" stroke="black" points="122.42,-122 119.42,-126 98.42,-126 95.42,-122 23.58,-122 23.58,-86 122.42,-86 122.42,-122"/>
<text text-anchor="middle" x="73" y="-99.8" font-family="Times,serif" font-size="14.00">SharedModule</text>
</g>
<!-- SharedModule&#45;&gt;EmployeeModule -->
<g id="edge42" class="edge">
<title>SharedModule&#45;&gt;EmployeeModule</title>
<path fill="none" stroke="black" d="M73,-122.2C73,-146.36 73,-186 73,-186 73,-186 5645.4,-186 5645.4,-186"/>
<polygon fill="black" stroke="black" points="5645.4,-189.5 5655.4,-186 5645.4,-182.5 5645.4,-189.5"/>
</g>
<!-- EmployeeService -->
<g id="node44" class="node">
<title>EmployeeService</title>
<ellipse fill="#fdb462" stroke="black" cx="10384" cy="-104" rx="79.29" ry="18"/>
<text text-anchor="middle" x="10384" y="-99.8" font-family="Times,serif" font-size="14.00">EmployeeService</text>
</g>
<!-- EmployeeService&#45;&gt;EmployeeModule -->
<g id="edge43" class="edge">
<title>EmployeeService&#45;&gt;EmployeeModule</title>
<path fill="none" stroke="black" d="M10384,-122.2C10384,-146.36 10384,-186 10384,-186 10384,-186 5782.2,-186 5782.2,-186"/>
<polygon fill="black" stroke="black" points="5782.2,-182.5 5772.2,-186 5782.2,-189.5 5782.2,-182.5"/>
</g>
<!-- EmployeeFacadeService -->
<g id="node45" class="node">
<title>EmployeeFacadeService</title>
<ellipse fill="#fdb462" stroke="black" cx="10180" cy="-104" rx="106.48" ry="18"/>
<text text-anchor="middle" x="10180" y="-99.8" font-family="Times,serif" font-size="14.00">EmployeeFacadeService</text>
</g>
<!-- EmployeeFacadeService&#45;&gt;EmployeeModule -->
<g id="edge44" class="edge">
<title>EmployeeFacadeService&#45;&gt;EmployeeModule</title>
<path fill="none" stroke="black" d="M10180,-122.38C10180,-146.28 10180,-185 10180,-185 10180,-185 5782.51,-185 5782.51,-185"/>
<polygon fill="black" stroke="black" points="5782.51,-181.5 5772.51,-185 5782.51,-188.5 5782.51,-181.5"/>
</g>
<!-- ShiftCalendarService -->
<g id="node46" class="node">
<title>ShiftCalendarService</title>
<ellipse fill="#fdb462" stroke="black" cx="9962" cy="-104" rx="93.75" ry="18"/>
<text text-anchor="middle" x="9962" y="-99.8" font-family="Times,serif" font-size="14.00">ShiftCalendarService</text>
</g>
<!-- ShiftCalendarService&#45;&gt;EmployeeModule -->
<g id="edge45" class="edge">
<title>ShiftCalendarService&#45;&gt;EmployeeModule</title>
<path fill="none" stroke="black" d="M9962,-122.32C9962,-145.66 9962,-183 9962,-183 9962,-183 5782.43,-183 5782.43,-183"/>
<polygon fill="black" stroke="black" points="5782.43,-179.5 5772.43,-183 5782.43,-186.5 5782.43,-179.5"/>
</g>
<!-- ShiftCalendarFacadeService -->
<g id="node47" class="node">
<title>ShiftCalendarFacadeService</title>
<ellipse fill="#fdb462" stroke="black" cx="9729" cy="-104" rx="120.94" ry="18"/>
<text text-anchor="middle" x="9729" y="-99.8" font-family="Times,serif" font-size="14.00">ShiftCalendarFacadeService</text>
</g>
<!-- ShiftCalendarFacadeService&#45;&gt;EmployeeModule -->
<g id="edge46" class="edge">
<title>ShiftCalendarFacadeService&#45;&gt;EmployeeModule</title>
<path fill="none" stroke="black" d="M9729,-122.09C9729,-145.13 9729,-182 9729,-182 9729,-182 5782.3,-182 5782.3,-182"/>
<polygon fill="black" stroke="black" points="5782.31,-178.5 5772.3,-182 5782.3,-185.5 5782.31,-178.5"/>
</g>
<!-- AttendanceService -->
<g id="node48" class="node">
<title>AttendanceService</title>
<ellipse fill="#fdb462" stroke="black" cx="9506" cy="-104" rx="83.93" ry="18"/>
<text text-anchor="middle" x="9506" y="-99.8" font-family="Times,serif" font-size="14.00">AttendanceService</text>
</g>
<!-- AttendanceService&#45;&gt;EmployeeModule -->
<g id="edge47" class="edge">
<title>AttendanceService&#45;&gt;EmployeeModule</title>
<path fill="none" stroke="black" d="M9506,-122.25C9506,-145.02 9506,-181 9506,-181 9506,-181 5782.42,-181 5782.42,-181"/>
<polygon fill="black" stroke="black" points="5782.42,-177.5 5772.42,-181 5782.42,-184.5 5782.42,-177.5"/>
</g>
<!-- AttendenceFacadeService -->
<g id="node49" class="node">
<title>AttendenceFacadeService</title>
<ellipse fill="#fdb462" stroke="black" cx="9293" cy="-104" rx="111.11" ry="18"/>
<text text-anchor="middle" x="9293" y="-99.8" font-family="Times,serif" font-size="14.00">AttendenceFacadeService</text>
</g>
<!-- AttendenceFacadeService&#45;&gt;EmployeeModule -->
<g id="edge48" class="edge">
<title>AttendenceFacadeService&#45;&gt;EmployeeModule</title>
<path fill="none" stroke="black" d="M9293,-122.16C9293,-144.35 9293,-179 9293,-179 9293,-179 5782.4,-179 5782.4,-179"/>
<polygon fill="black" stroke="black" points="5782.4,-175.5 5772.4,-179 5782.4,-182.5 5782.4,-175.5"/>
</g>
<!-- PayrollService -->
<g id="node50" class="node">
<title>PayrollService</title>
<ellipse fill="#fdb462" stroke="black" cx="9096" cy="-104" rx="67.77" ry="18"/>
<text text-anchor="middle" x="9096" y="-99.8" font-family="Times,serif" font-size="14.00">PayrollService</text>
</g>
<!-- PayrollService&#45;&gt;EmployeeModule -->
<g id="edge49" class="edge">
<title>PayrollService&#45;&gt;EmployeeModule</title>
<path fill="none" stroke="black" d="M9096,-122.29C9096,-144.21 9096,-178 9096,-178 9096,-178 5782.34,-178 5782.34,-178"/>
<polygon fill="black" stroke="black" points="5782.34,-174.5 5772.34,-178 5782.34,-181.5 5782.34,-174.5"/>
</g>
<!-- PayrollFacadeService -->
<g id="node51" class="node">
<title>PayrollFacadeService</title>
<ellipse fill="#fdb462" stroke="black" cx="8915" cy="-104" rx="95.46" ry="18"/>
<text text-anchor="middle" x="8915" y="-99.8" font-family="Times,serif" font-size="14.00">PayrollFacadeService</text>
</g>
<!-- PayrollFacadeService&#45;&gt;EmployeeModule -->
<g id="edge50" class="edge">
<title>PayrollFacadeService&#45;&gt;EmployeeModule</title>
<path fill="none" stroke="black" d="M8915,-122.17C8915,-143.5 8915,-176 8915,-176 8915,-176 5782.29,-176 5782.29,-176"/>
<polygon fill="black" stroke="black" points="5782.29,-172.5 5772.29,-176 5782.29,-179.5 5782.29,-172.5"/>
</g>
<!-- RequestService -->
<g id="node52" class="node">
<title>RequestService</title>
<ellipse fill="#fdb462" stroke="black" cx="8731" cy="-104" rx="71.2" ry="18"/>
<text text-anchor="middle" x="8731" y="-99.8" font-family="Times,serif" font-size="14.00">RequestService</text>
</g>
<!-- RequestService&#45;&gt;EmployeeModule -->
<g id="edge51" class="edge">
<title>RequestService&#45;&gt;EmployeeModule</title>
<path fill="none" stroke="black" d="M8731,-122.28C8731,-143.32 8731,-175 8731,-175 8731,-175 5782.24,-175 5782.24,-175"/>
<polygon fill="black" stroke="black" points="5782.24,-171.5 5772.24,-175 5782.24,-178.5 5782.24,-171.5"/>
</g>
<!-- RequestFacadeService -->
<g id="node53" class="node">
<title>RequestFacadeService</title>
<ellipse fill="#fdb462" stroke="black" cx="8543" cy="-104" rx="98.39" ry="18"/>
<text text-anchor="middle" x="8543" y="-99.8" font-family="Times,serif" font-size="14.00">RequestFacadeService</text>
</g>
<!-- RequestFacadeService&#45;&gt;EmployeeModule -->
<g id="edge52" class="edge">
<title>RequestFacadeService&#45;&gt;EmployeeModule</title>
<path fill="none" stroke="black" d="M8543,-122.03C8543,-142.77 8543,-174 8543,-174 8543,-174 5782.44,-174 5782.44,-174"/>
<polygon fill="black" stroke="black" points="5782.44,-170.5 5772.44,-174 5782.44,-177.5 5782.44,-170.5"/>
</g>
</g>
</svg>
