<?xml version="1.0" encoding="UTF-8" standalone="no"?>
<!DOCTYPE svg PUBLIC "-//W3C//DTD SVG 1.1//EN"
 "http://www.w3.org/Graphics/SVG/1.1/DTD/svg11.dtd">
<!-- Generated by graphviz version 2.46.0 (20210119.1425)
 -->
<!-- Title: dependencies Pages: 1 -->
<svg width="504pt" height="211pt"
 viewBox="0.00 0.00 504.00 211.00" xmlns="http://www.w3.org/2000/svg" xmlns:xlink="http://www.w3.org/1999/xlink">
<g id="graph0" class="graph" transform="scale(1 1) rotate(0) translate(4 207)">
<title>dependencies</title>
<polygon fill="white" stroke="transparent" points="-4,4 -4,-207 500,-207 500,4 -4,4"/>
<text text-anchor="start" x="227.01" y="-42.4" font-family="sans-serif" font-weight="bold" font-size="14.00">Legend</text>
<polygon fill="#ffffb3" stroke="transparent" points="14,-10 14,-30 34,-30 34,-10 14,-10"/>
<text text-anchor="start" x="37.63" y="-15.4" font-family="sans-serif" font-size="14.00"> &#160;Declarations</text>
<polygon fill="#8dd3c7" stroke="transparent" points="127,-10 127,-30 147,-30 147,-10 127,-10"/>
<text text-anchor="start" x="150.73" y="-15.4" font-family="sans-serif" font-size="14.00"> &#160;Module</text>
<polygon fill="#80b1d3" stroke="transparent" points="213,-10 213,-30 233,-30 233,-10 213,-10"/>
<text text-anchor="start" x="236.78" y="-15.4" font-family="sans-serif" font-size="14.00"> &#160;Bootstrap</text>
<polygon fill="#fdb462" stroke="transparent" points="310,-10 310,-30 330,-30 330,-10 310,-10"/>
<text text-anchor="start" x="333.67" y="-15.4" font-family="sans-serif" font-size="14.00"> &#160;Providers</text>
<polygon fill="#fb8072" stroke="transparent" points="406,-10 406,-30 426,-30 426,-10 406,-10"/>
<text text-anchor="start" x="429.73" y="-15.4" font-family="sans-serif" font-size="14.00"> &#160;Exports</text>
<g id="clust1" class="cluster">
<title>cluster_ThemeModule</title>
<polygon fill="none" stroke="black" stroke-dasharray="1,5" points="109,-70 109,-195 387,-195 387,-70 109,-70"/>
</g>
<g id="clust4" class="cluster">
<title>cluster_ThemeModule_imports</title>
<polygon fill="none" stroke="black" points="275,-78 275,-130 379,-130 379,-78 275,-78"/>
</g>
<g id="clust2" class="cluster">
<title>cluster_ThemeModule_declarations</title>
<polygon fill="none" stroke="black" points="117,-78 117,-130 267,-130 267,-78 117,-78"/>
</g>
<!-- SetDecimalDirective -->
<g id="node1" class="node">
<title>SetDecimalDirective</title>
<polygon fill="#ffffb3" stroke="black" points="258.89,-122 125.11,-122 125.11,-86 258.89,-86 258.89,-122"/>
<text text-anchor="middle" x="192" y="-99.8" font-family="Times,serif" font-size="14.00">SetDecimalDirective</text>
</g>
<!-- ThemeModule -->
<g id="node2" class="node">
<title>ThemeModule</title>
<polygon fill="#8dd3c7" stroke="black" points="308.42,-187 305.42,-191 284.42,-191 281.42,-187 209.58,-187 209.58,-151 308.42,-151 308.42,-187"/>
<text text-anchor="middle" x="259" y="-164.8" font-family="Times,serif" font-size="14.00">ThemeModule</text>
</g>
<!-- SetDecimalDirective&#45;&gt;ThemeModule -->
<g id="edge1" class="edge">
<title>SetDecimalDirective&#45;&gt;ThemeModule</title>
<path fill="none" stroke="black" d="M234.24,-122.11C234.24,-122.11 234.24,-140.99 234.24,-140.99"/>
<polygon fill="black" stroke="black" points="230.74,-140.99 234.24,-150.99 237.74,-140.99 230.74,-140.99"/>
</g>
<!-- AuthModule -->
<g id="node3" class="node">
<title>AuthModule</title>
<polygon fill="#8dd3c7" stroke="black" points="370.55,-122 367.55,-126 346.55,-126 343.55,-122 283.45,-122 283.45,-86 370.55,-86 370.55,-122"/>
<text text-anchor="middle" x="327" y="-99.8" font-family="Times,serif" font-size="14.00">AuthModule</text>
</g>
<!-- AuthModule&#45;&gt;ThemeModule -->
<g id="edge2" class="edge">
<title>AuthModule&#45;&gt;ThemeModule</title>
<path fill="none" stroke="black" d="M295.72,-122.11C295.72,-122.11 295.72,-140.99 295.72,-140.99"/>
<polygon fill="black" stroke="black" points="292.22,-140.99 295.72,-150.99 299.22,-140.99 292.22,-140.99"/>
</g>
</g>
</svg>
