<?xml version="1.0" encoding="UTF-8" standalone="no"?>
<!DOCTYPE svg PUBLIC "-//W3C//DTD SVG 1.1//EN"
 "http://www.w3.org/Graphics/SVG/1.1/DTD/svg11.dtd">
<!-- Generated by graphviz version 2.46.0 (20210119.1425)
 -->
<!-- Title: dependencies Pages: 1 -->
<svg width="6888pt" height="211pt"
 viewBox="0.00 0.00 6888.00 211.00" xmlns="http://www.w3.org/2000/svg" xmlns:xlink="http://www.w3.org/1999/xlink">
<g id="graph0" class="graph" transform="scale(1 1) rotate(0) translate(4 207)">
<title>dependencies</title>
<polygon fill="white" stroke="transparent" points="-4,4 -4,-207 6884,-207 6884,4 -4,4"/>
<text text-anchor="start" x="3419.01" y="-42.4" font-family="sans-serif" font-weight="bold" font-size="14.00">Legend</text>
<polygon fill="#ffffb3" stroke="transparent" points="3206,-10 3206,-30 3226,-30 3226,-10 3206,-10"/>
<text text-anchor="start" x="3229.63" y="-15.4" font-family="sans-serif" font-size="14.00"> &#160;Declarations</text>
<polygon fill="#8dd3c7" stroke="transparent" points="3319,-10 3319,-30 3339,-30 3339,-10 3319,-10"/>
<text text-anchor="start" x="3342.73" y="-15.4" font-family="sans-serif" font-size="14.00"> &#160;Module</text>
<polygon fill="#80b1d3" stroke="transparent" points="3405,-10 3405,-30 3425,-30 3425,-10 3405,-10"/>
<text text-anchor="start" x="3428.78" y="-15.4" font-family="sans-serif" font-size="14.00"> &#160;Bootstrap</text>
<polygon fill="#fdb462" stroke="transparent" points="3502,-10 3502,-30 3522,-30 3522,-10 3502,-10"/>
<text text-anchor="start" x="3525.67" y="-15.4" font-family="sans-serif" font-size="14.00"> &#160;Providers</text>
<polygon fill="#fb8072" stroke="transparent" points="3598,-10 3598,-30 3618,-30 3618,-10 3598,-10"/>
<text text-anchor="start" x="3621.73" y="-15.4" font-family="sans-serif" font-size="14.00"> &#160;Exports</text>
<g id="clust1" class="cluster">
<title>cluster_CashManagementModule</title>
<polygon fill="none" stroke="black" stroke-dasharray="1,5" points="8,-70 8,-195 6872,-195 6872,-70 8,-70"/>
</g>
<g id="clust31" class="cluster">
<title>cluster_CashManagementModule_imports</title>
<polygon fill="none" stroke="black" points="6304,-78 6304,-130 6864,-130 6864,-78 6304,-78"/>
</g>
<g id="clust2" class="cluster">
<title>cluster_CashManagementModule_declarations</title>
<polygon fill="none" stroke="black" points="1204,-78 1204,-130 6296,-130 6296,-78 1204,-78"/>
</g>
<g id="clust34" class="cluster">
<title>cluster_CashManagementModule_providers</title>
<polygon fill="none" stroke="black" points="16,-78 16,-130 1196,-130 1196,-78 16,-78"/>
</g>
<!-- CashManagementComponent -->
<g id="node1" class="node">
<title>CashManagementComponent</title>
<polygon fill="#ffffb3" stroke="black" points="6288.41,-122 6105.59,-122 6105.59,-86 6288.41,-86 6288.41,-122"/>
<text text-anchor="middle" x="6197" y="-99.8" font-family="Times,serif" font-size="14.00">CashManagementComponent</text>
</g>
<!-- CashManagementModule -->
<g id="node29" class="node">
<title>CashManagementModule</title>
<polygon fill="#8dd3c7" stroke="black" points="4030.13,-187 4027.13,-191 4006.13,-191 4003.13,-187 3869.87,-187 3869.87,-151 4030.13,-151 4030.13,-187"/>
<text text-anchor="middle" x="3950" y="-164.8" font-family="Times,serif" font-size="14.00">CashManagementModule</text>
</g>
<!-- CashManagementComponent&#45;&gt;CashManagementModule -->
<g id="edge1" class="edge">
<title>CashManagementComponent&#45;&gt;CashManagementModule</title>
<path fill="none" stroke="black" d="M6197,-122.29C6197,-144.21 6197,-178 6197,-178 6197,-178 4040.3,-178 4040.3,-178"/>
<polygon fill="black" stroke="black" points="4040.3,-174.5 4030.3,-178 4040.3,-181.5 4040.3,-174.5"/>
</g>
<!-- CashUpComponent -->
<g id="node2" class="node">
<title>CashUpComponent</title>
<polygon fill="#ffffb3" stroke="black" points="6088.44,-122 5961.56,-122 5961.56,-86 6088.44,-86 6088.44,-122"/>
<text text-anchor="middle" x="6025" y="-99.8" font-family="Times,serif" font-size="14.00">CashUpComponent</text>
</g>
<!-- CashUpComponent&#45;&gt;CashManagementModule -->
<g id="edge2" class="edge">
<title>CashUpComponent&#45;&gt;CashManagementModule</title>
<path fill="none" stroke="black" d="M6025,-122.17C6025,-143.5 6025,-176 6025,-176 6025,-176 4040.39,-176 4040.39,-176"/>
<polygon fill="black" stroke="black" points="4040.39,-172.5 4030.39,-176 4040.39,-179.5 4040.39,-172.5"/>
</g>
<!-- DepositComponent -->
<g id="node3" class="node">
<title>DepositComponent</title>
<polygon fill="#ffffb3" stroke="black" points="5943.38,-122 5818.62,-122 5818.62,-86 5943.38,-86 5943.38,-122"/>
<text text-anchor="middle" x="5881" y="-99.8" font-family="Times,serif" font-size="14.00">DepositComponent</text>
</g>
<!-- DepositComponent&#45;&gt;CashManagementModule -->
<g id="edge3" class="edge">
<title>DepositComponent&#45;&gt;CashManagementModule</title>
<path fill="none" stroke="black" d="M5881,-122.03C5881,-142.77 5881,-174 5881,-174 5881,-174 4040.21,-174 4040.21,-174"/>
<polygon fill="black" stroke="black" points="4040.21,-170.5 4030.21,-174 4040.21,-177.5 4040.21,-170.5"/>
</g>
<!-- ReconciliationComponent -->
<g id="node4" class="node">
<title>ReconciliationComponent</title>
<polygon fill="#ffffb3" stroke="black" points="5800.48,-122 5637.52,-122 5637.52,-86 5800.48,-86 5800.48,-122"/>
<text text-anchor="middle" x="5719" y="-99.8" font-family="Times,serif" font-size="14.00">ReconciliationComponent</text>
</g>
<!-- ReconciliationComponent&#45;&gt;CashManagementModule -->
<g id="edge4" class="edge">
<title>ReconciliationComponent&#45;&gt;CashManagementModule</title>
<path fill="none" stroke="black" d="M5719,-122.22C5719,-142.37 5719,-172 5719,-172 5719,-172 4040.32,-172 4040.32,-172"/>
<polygon fill="black" stroke="black" points="4040.32,-168.5 4030.32,-172 4040.32,-175.5 4040.32,-168.5"/>
</g>
<!-- ReportComponent -->
<g id="node5" class="node">
<title>ReportComponent</title>
<polygon fill="#ffffb3" stroke="black" points="5619.94,-122 5500.06,-122 5500.06,-86 5619.94,-86 5619.94,-122"/>
<text text-anchor="middle" x="5560" y="-99.8" font-family="Times,serif" font-size="14.00">ReportComponent</text>
</g>
<!-- ReportComponent&#45;&gt;CashManagementModule -->
<g id="edge5" class="edge">
<title>ReportComponent&#45;&gt;CashManagementModule</title>
<path fill="none" stroke="black" d="M5560,-122.03C5560,-141.58 5560,-170 5560,-170 5560,-170 4040.39,-170 4040.39,-170"/>
<polygon fill="black" stroke="black" points="4040.39,-166.5 4030.39,-170 4040.39,-173.5 4040.39,-166.5"/>
</g>
<!-- PendingComponent -->
<g id="node6" class="node">
<title>PendingComponent</title>
<polygon fill="#ffffb3" stroke="black" points="5482.72,-122 5355.28,-122 5355.28,-86 5482.72,-86 5482.72,-122"/>
<text text-anchor="middle" x="5419" y="-99.8" font-family="Times,serif" font-size="14.00">PendingComponent</text>
</g>
<!-- PendingComponent&#45;&gt;CashManagementModule -->
<g id="edge6" class="edge">
<title>PendingComponent&#45;&gt;CashManagementModule</title>
<path fill="none" stroke="black" d="M5419,-122.11C5419,-141.34 5419,-169 5419,-169 5419,-169 4040.28,-169 4040.28,-169"/>
<polygon fill="black" stroke="black" points="4040.28,-165.5 4030.28,-169 4040.28,-172.5 4040.28,-165.5"/>
</g>
<!-- BankingComponent -->
<g id="node7" class="node">
<title>BankingComponent</title>
<polygon fill="#ffffb3" stroke="black" points="5337.27,-122 5208.73,-122 5208.73,-86 5337.27,-86 5337.27,-122"/>
<text text-anchor="middle" x="5273" y="-99.8" font-family="Times,serif" font-size="14.00">BankingComponent</text>
</g>
<!-- BankingComponent&#45;&gt;CashManagementModule -->
<g id="edge7" class="edge">
<title>BankingComponent&#45;&gt;CashManagementModule</title>
<path fill="none" stroke="black" d="M5273,-122.22C5273,-140.83 5273,-167 5273,-167 5273,-167 4040.27,-167 4040.27,-167"/>
<polygon fill="black" stroke="black" points="4040.27,-163.5 4030.27,-167 4040.27,-170.5 4040.27,-163.5"/>
</g>
<!-- NewCashupComponent -->
<g id="node8" class="node">
<title>NewCashupComponent</title>
<polygon fill="#ffffb3" stroke="black" points="5190.76,-122 5041.24,-122 5041.24,-86 5190.76,-86 5190.76,-122"/>
<text text-anchor="middle" x="5116" y="-99.8" font-family="Times,serif" font-size="14.00">NewCashupComponent</text>
</g>
<!-- NewCashupComponent&#45;&gt;CashManagementModule -->
<g id="edge8" class="edge">
<title>NewCashupComponent&#45;&gt;CashManagementModule</title>
<path fill="none" stroke="black" d="M5116,-122.3C5116,-140.27 5116,-165 5116,-165 5116,-165 4040.14,-165 4040.14,-165"/>
<polygon fill="black" stroke="black" points="4040.14,-161.5 4030.14,-165 4040.14,-168.5 4040.14,-161.5"/>
</g>
<!-- ViewCashupComponent -->
<g id="node9" class="node">
<title>ViewCashupComponent</title>
<polygon fill="#ffffb3" stroke="black" points="5022.65,-122 4869.35,-122 4869.35,-86 5022.65,-86 5022.65,-122"/>
<text text-anchor="middle" x="4946" y="-99.8" font-family="Times,serif" font-size="14.00">ViewCashupComponent</text>
</g>
<!-- ViewCashupComponent&#45;&gt;CashManagementModule -->
<g id="edge9" class="edge">
<title>ViewCashupComponent&#45;&gt;CashManagementModule</title>
<path fill="none" stroke="black" d="M4946,-122.02C4946,-139.37 4946,-163 4946,-163 4946,-163 4040.24,-163 4040.24,-163"/>
<polygon fill="black" stroke="black" points="4040.24,-159.5 4030.24,-163 4040.24,-166.5 4040.24,-159.5"/>
</g>
<!-- ViewReportComponent -->
<g id="node10" class="node">
<title>ViewReportComponent</title>
<polygon fill="#ffffb3" stroke="black" points="4850.75,-122 4701.25,-122 4701.25,-86 4850.75,-86 4850.75,-122"/>
<text text-anchor="middle" x="4776" y="-99.8" font-family="Times,serif" font-size="14.00">ViewReportComponent</text>
</g>
<!-- ViewReportComponent&#45;&gt;CashManagementModule -->
<g id="edge10" class="edge">
<title>ViewReportComponent&#45;&gt;CashManagementModule</title>
<path fill="none" stroke="black" d="M4776,-122.04C4776,-138.73 4776,-161 4776,-161 4776,-161 4040.33,-161 4040.33,-161"/>
<polygon fill="black" stroke="black" points="4040.33,-157.5 4030.33,-161 4040.33,-164.5 4040.33,-157.5"/>
</g>
<!-- NewReportComponent -->
<g id="node11" class="node">
<title>NewReportComponent</title>
<polygon fill="#ffffb3" stroke="black" points="4682.86,-122 4537.14,-122 4537.14,-86 4682.86,-86 4682.86,-122"/>
<text text-anchor="middle" x="4610" y="-99.8" font-family="Times,serif" font-size="14.00">NewReportComponent</text>
</g>
<!-- NewReportComponent&#45;&gt;CashManagementModule -->
<g id="edge11" class="edge">
<title>NewReportComponent&#45;&gt;CashManagementModule</title>
<path fill="none" stroke="black" d="M4610,-122.01C4610,-138.05 4610,-159 4610,-159 4610,-159 4040.27,-159 4040.27,-159"/>
<polygon fill="black" stroke="black" points="4040.27,-155.5 4030.27,-159 4040.27,-162.5 4040.27,-155.5"/>
</g>
<!-- EditReportComponent -->
<g id="node12" class="node">
<title>EditReportComponent</title>
<polygon fill="#ffffb3" stroke="black" points="4519.27,-122 4376.73,-122 4376.73,-86 4519.27,-86 4519.27,-122"/>
<text text-anchor="middle" x="4448" y="-99.8" font-family="Times,serif" font-size="14.00">EditReportComponent</text>
</g>
<!-- EditReportComponent&#45;&gt;CashManagementModule -->
<g id="edge12" class="edge">
<title>EditReportComponent&#45;&gt;CashManagementModule</title>
<path fill="none" stroke="black" d="M4448,-122.24C4448,-137.57 4448,-157 4448,-157 4448,-157 4040.29,-157 4040.29,-157"/>
<polygon fill="black" stroke="black" points="4040.29,-153.5 4030.29,-157 4040.29,-160.5 4040.29,-153.5"/>
</g>
<!-- AllReportComponent -->
<g id="node13" class="node">
<title>AllReportComponent</title>
<polygon fill="#ffffb3" stroke="black" points="4358.82,-122 4221.18,-122 4221.18,-86 4358.82,-86 4358.82,-122"/>
<text text-anchor="middle" x="4290" y="-99.8" font-family="Times,serif" font-size="14.00">AllReportComponent</text>
</g>
<!-- AllReportComponent&#45;&gt;CashManagementModule -->
<g id="edge13" class="edge">
<title>AllReportComponent&#45;&gt;CashManagementModule</title>
<path fill="none" stroke="black" d="M4290,-122.12C4290,-136.78 4290,-155 4290,-155 4290,-155 4040.14,-155 4040.14,-155"/>
<polygon fill="black" stroke="black" points="4040.14,-151.5 4030.14,-155 4040.14,-158.5 4040.14,-151.5"/>
</g>
<!-- CashComponent -->
<g id="node14" class="node">
<title>CashComponent</title>
<polygon fill="#ffffb3" stroke="black" points="4203.83,-122 4094.17,-122 4094.17,-86 4203.83,-86 4203.83,-122"/>
<text text-anchor="middle" x="4149" y="-99.8" font-family="Times,serif" font-size="14.00">CashComponent</text>
</g>
<!-- CashComponent&#45;&gt;CashManagementModule -->
<g id="edge14" class="edge">
<title>CashComponent&#45;&gt;CashManagementModule</title>
<path fill="none" stroke="black" d="M4149,-122.25C4149,-136.18 4149,-153 4149,-153 4149,-153 4040.37,-153 4040.37,-153"/>
<polygon fill="black" stroke="black" points="4040.37,-149.5 4030.37,-153 4040.37,-156.5 4040.37,-149.5"/>
</g>
<!-- CardComponent -->
<g id="node15" class="node">
<title>CardComponent</title>
<polygon fill="#ffffb3" stroke="black" points="4076.05,-122 3967.95,-122 3967.95,-86 4076.05,-86 4076.05,-122"/>
<text text-anchor="middle" x="4022" y="-99.8" font-family="Times,serif" font-size="14.00">CardComponent</text>
</g>
<!-- CardComponent&#45;&gt;CashManagementModule -->
<g id="edge15" class="edge">
<title>CardComponent&#45;&gt;CashManagementModule</title>
<path fill="none" stroke="black" d="M3999.02,-122.11C3999.02,-122.11 3999.02,-140.99 3999.02,-140.99"/>
<polygon fill="black" stroke="black" points="3995.52,-140.99 3999.02,-150.99 4002.52,-140.99 3995.52,-140.99"/>
</g>
<!-- ThirdPartyComponent -->
<g id="node16" class="node">
<title>ThirdPartyComponent</title>
<polygon fill="#ffffb3" stroke="black" points="3949.98,-122 3808.02,-122 3808.02,-86 3949.98,-86 3949.98,-122"/>
<text text-anchor="middle" x="3879" y="-99.8" font-family="Times,serif" font-size="14.00">ThirdPartyComponent</text>
</g>
<!-- ThirdPartyComponent&#45;&gt;CashManagementModule -->
<g id="edge16" class="edge">
<title>ThirdPartyComponent&#45;&gt;CashManagementModule</title>
<path fill="none" stroke="black" d="M3909.84,-122.11C3909.84,-122.11 3909.84,-140.99 3909.84,-140.99"/>
<polygon fill="black" stroke="black" points="3906.34,-140.99 3909.84,-150.99 3913.34,-140.99 3906.34,-140.99"/>
</g>
<!-- ReconcileLandingComponent -->
<g id="node17" class="node">
<title>ReconcileLandingComponent</title>
<polygon fill="#ffffb3" stroke="black" points="3789.97,-122 3606.03,-122 3606.03,-86 3789.97,-86 3789.97,-122"/>
<text text-anchor="middle" x="3698" y="-99.8" font-family="Times,serif" font-size="14.00">ReconcileLandingComponent</text>
</g>
<!-- ReconcileLandingComponent&#45;&gt;CashManagementModule -->
<g id="edge17" class="edge">
<title>ReconcileLandingComponent&#45;&gt;CashManagementModule</title>
<path fill="none" stroke="black" d="M3698,-122.25C3698,-136.18 3698,-153 3698,-153 3698,-153 3859.57,-153 3859.57,-153"/>
<polygon fill="black" stroke="black" points="3859.57,-156.5 3869.57,-153 3859.57,-149.5 3859.57,-156.5"/>
</g>
<!-- AllCashupComponent -->
<g id="node18" class="node">
<title>AllCashupComponent</title>
<polygon fill="#ffffb3" stroke="black" points="3587.72,-122 3446.28,-122 3446.28,-86 3587.72,-86 3587.72,-122"/>
<text text-anchor="middle" x="3517" y="-99.8" font-family="Times,serif" font-size="14.00">AllCashupComponent</text>
</g>
<!-- AllCashupComponent&#45;&gt;CashManagementModule -->
<g id="edge18" class="edge">
<title>AllCashupComponent&#45;&gt;CashManagementModule</title>
<path fill="none" stroke="black" d="M3517,-122.12C3517,-136.78 3517,-155 3517,-155 3517,-155 3859.82,-155 3859.82,-155"/>
<polygon fill="black" stroke="black" points="3859.82,-158.5 3869.82,-155 3859.82,-151.5 3859.82,-158.5"/>
</g>
<!-- CashupActionCellRendererComponentComponent -->
<g id="node19" class="node">
<title>CashupActionCellRendererComponentComponent</title>
<polygon fill="#ffffb3" stroke="black" points="3428.9,-122 3127.1,-122 3127.1,-86 3428.9,-86 3428.9,-122"/>
<text text-anchor="middle" x="3278" y="-99.8" font-family="Times,serif" font-size="14.00">CashupActionCellRendererComponentComponent</text>
</g>
<!-- CashupActionCellRendererComponentComponent&#45;&gt;CashManagementModule -->
<g id="edge19" class="edge">
<title>CashupActionCellRendererComponentComponent&#45;&gt;CashManagementModule</title>
<path fill="none" stroke="black" d="M3278,-122.24C3278,-137.57 3278,-157 3278,-157 3278,-157 3859.61,-157 3859.61,-157"/>
<polygon fill="black" stroke="black" points="3859.61,-160.5 3869.61,-157 3859.61,-153.5 3859.61,-160.5"/>
</g>
<!-- EditCashupComponent -->
<g id="node20" class="node">
<title>EditCashupComponent</title>
<polygon fill="#ffffb3" stroke="black" points="3109.16,-122 2962.84,-122 2962.84,-86 3109.16,-86 3109.16,-122"/>
<text text-anchor="middle" x="3036" y="-99.8" font-family="Times,serif" font-size="14.00">EditCashupComponent</text>
</g>
<!-- EditCashupComponent&#45;&gt;CashManagementModule -->
<g id="edge20" class="edge">
<title>EditCashupComponent&#45;&gt;CashManagementModule</title>
<path fill="none" stroke="black" d="M3036,-122.01C3036,-138.05 3036,-159 3036,-159 3036,-159 3859.69,-159 3859.69,-159"/>
<polygon fill="black" stroke="black" points="3859.69,-162.5 3869.69,-159 3859.69,-155.5 3859.69,-162.5"/>
</g>
<!-- BankingActionCellRendererComponent -->
<g id="node21" class="node">
<title>BankingActionCellRendererComponent</title>
<polygon fill="#ffffb3" stroke="black" points="2944.51,-122 2703.49,-122 2703.49,-86 2944.51,-86 2944.51,-122"/>
<text text-anchor="middle" x="2824" y="-99.8" font-family="Times,serif" font-size="14.00">BankingActionCellRendererComponent</text>
</g>
<!-- BankingActionCellRendererComponent&#45;&gt;CashManagementModule -->
<g id="edge21" class="edge">
<title>BankingActionCellRendererComponent&#45;&gt;CashManagementModule</title>
<path fill="none" stroke="black" d="M2824,-122.04C2824,-138.73 2824,-161 2824,-161 2824,-161 3859.47,-161 3859.47,-161"/>
<polygon fill="black" stroke="black" points="3859.47,-164.5 3869.47,-161 3859.47,-157.5 3859.47,-164.5"/>
</g>
<!-- ReportsActionCellRendererComponent -->
<g id="node22" class="node">
<title>ReportsActionCellRendererComponent</title>
<polygon fill="#ffffb3" stroke="black" points="2684.62,-122 2447.38,-122 2447.38,-86 2684.62,-86 2684.62,-122"/>
<text text-anchor="middle" x="2566" y="-99.8" font-family="Times,serif" font-size="14.00">ReportsActionCellRendererComponent</text>
</g>
<!-- ReportsActionCellRendererComponent&#45;&gt;CashManagementModule -->
<g id="edge22" class="edge">
<title>ReportsActionCellRendererComponent&#45;&gt;CashManagementModule</title>
<path fill="none" stroke="black" d="M2566,-122.02C2566,-139.37 2566,-163 2566,-163 2566,-163 3859.86,-163 3859.86,-163"/>
<polygon fill="black" stroke="black" points="3859.86,-166.5 3869.86,-163 3859.86,-159.5 3859.86,-166.5"/>
</g>
<!-- CashupSidebarComponent -->
<g id="node23" class="node">
<title>CashupSidebarComponent</title>
<polygon fill="#ffffb3" stroke="black" points="2429.09,-122 2262.91,-122 2262.91,-86 2429.09,-86 2429.09,-122"/>
<text text-anchor="middle" x="2346" y="-99.8" font-family="Times,serif" font-size="14.00">CashupSidebarComponent</text>
</g>
<!-- CashupSidebarComponent&#45;&gt;CashManagementModule -->
<g id="edge23" class="edge">
<title>CashupSidebarComponent&#45;&gt;CashManagementModule</title>
<path fill="none" stroke="black" d="M2346,-122.3C2346,-140.27 2346,-165 2346,-165 2346,-165 3859.63,-165 3859.63,-165"/>
<polygon fill="black" stroke="black" points="3859.63,-168.5 3869.63,-165 3859.63,-161.5 3859.63,-168.5"/>
</g>
<!-- CashupSummaryBoxComponent -->
<g id="node24" class="node">
<title>CashupSummaryBoxComponent</title>
<polygon fill="#ffffb3" stroke="black" points="2244.6,-122 2043.4,-122 2043.4,-86 2244.6,-86 2244.6,-122"/>
<text text-anchor="middle" x="2144" y="-99.8" font-family="Times,serif" font-size="14.00">CashupSummaryBoxComponent</text>
</g>
<!-- CashupSummaryBoxComponent&#45;&gt;CashManagementModule -->
<g id="edge24" class="edge">
<title>CashupSummaryBoxComponent&#45;&gt;CashManagementModule</title>
<path fill="none" stroke="black" d="M2144,-122.22C2144,-140.83 2144,-167 2144,-167 2144,-167 3859.77,-167 3859.77,-167"/>
<polygon fill="black" stroke="black" points="3859.77,-170.5 3869.77,-167 3859.77,-163.5 3859.77,-170.5"/>
</g>
<!-- SafesummaryComponent -->
<g id="node25" class="node">
<title>SafesummaryComponent</title>
<polygon fill="#ffffb3" stroke="black" points="2025.31,-122 1866.69,-122 1866.69,-86 2025.31,-86 2025.31,-122"/>
<text text-anchor="middle" x="1946" y="-99.8" font-family="Times,serif" font-size="14.00">SafesummaryComponent</text>
</g>
<!-- SafesummaryComponent&#45;&gt;CashManagementModule -->
<g id="edge25" class="edge">
<title>SafesummaryComponent&#45;&gt;CashManagementModule</title>
<path fill="none" stroke="black" d="M1946,-122.11C1946,-141.34 1946,-169 1946,-169 1946,-169 3859.58,-169 3859.58,-169"/>
<polygon fill="black" stroke="black" points="3859.58,-172.5 3869.58,-169 3859.58,-165.5 3859.58,-172.5"/>
</g>
<!-- SafesummaryActionCellRenderComponent -->
<g id="node26" class="node">
<title>SafesummaryActionCellRenderComponent</title>
<polygon fill="#ffffb3" stroke="black" points="1849.17,-122 1588.83,-122 1588.83,-86 1849.17,-86 1849.17,-122"/>
<text text-anchor="middle" x="1719" y="-99.8" font-family="Times,serif" font-size="14.00">SafesummaryActionCellRenderComponent</text>
</g>
<!-- SafesummaryActionCellRenderComponent&#45;&gt;CashManagementModule -->
<g id="edge26" class="edge">
<title>SafesummaryActionCellRenderComponent&#45;&gt;CashManagementModule</title>
<path fill="none" stroke="black" d="M1719,-122.03C1719,-141.58 1719,-170 1719,-170 1719,-170 3859.61,-170 3859.61,-170"/>
<polygon fill="black" stroke="black" points="3859.61,-173.5 3869.61,-170 3859.61,-166.5 3859.61,-173.5"/>
</g>
<!-- AccountingJournalsComponent -->
<g id="node27" class="node">
<title>AccountingJournalsComponent</title>
<polygon fill="#ffffb3" stroke="black" points="1570.8,-122 1377.2,-122 1377.2,-86 1570.8,-86 1570.8,-122"/>
<text text-anchor="middle" x="1474" y="-99.8" font-family="Times,serif" font-size="14.00">AccountingJournalsComponent</text>
</g>
<!-- AccountingJournalsComponent&#45;&gt;CashManagementModule -->
<g id="edge27" class="edge">
<title>AccountingJournalsComponent&#45;&gt;CashManagementModule</title>
<path fill="none" stroke="black" d="M1474,-122.22C1474,-142.37 1474,-172 1474,-172 1474,-172 3859.73,-172 3859.73,-172"/>
<polygon fill="black" stroke="black" points="3859.73,-175.5 3869.73,-172 3859.73,-168.5 3859.73,-175.5"/>
</g>
<!-- GlobalSearchFilterPipe -->
<g id="node28" class="node">
<title>GlobalSearchFilterPipe</title>
<polygon fill="#ffffb3" stroke="black" points="1359.91,-122 1212.09,-122 1212.09,-86 1359.91,-86 1359.91,-122"/>
<text text-anchor="middle" x="1286" y="-99.8" font-family="Times,serif" font-size="14.00">GlobalSearchFilterPipe</text>
</g>
<!-- GlobalSearchFilterPipe&#45;&gt;CashManagementModule -->
<g id="edge28" class="edge">
<title>GlobalSearchFilterPipe&#45;&gt;CashManagementModule</title>
<path fill="none" stroke="black" d="M1286,-122.03C1286,-142.77 1286,-174 1286,-174 1286,-174 3859.55,-174 3859.55,-174"/>
<polygon fill="black" stroke="black" points="3859.55,-177.5 3869.55,-174 3859.55,-170.5 3859.55,-177.5"/>
</g>
<!-- CashManagementRoutingModule -->
<g id="node30" class="node">
<title>CashManagementRoutingModule</title>
<polygon fill="#8dd3c7" stroke="black" points="6855.75,-122 6852.75,-126 6831.75,-126 6828.75,-122 6650.25,-122 6650.25,-86 6855.75,-86 6855.75,-122"/>
<text text-anchor="middle" x="6753" y="-99.8" font-family="Times,serif" font-size="14.00">CashManagementRoutingModule</text>
</g>
<!-- CashManagementRoutingModule&#45;&gt;CashManagementModule -->
<g id="edge29" class="edge">
<title>CashManagementRoutingModule&#45;&gt;CashManagementModule</title>
<path fill="none" stroke="black" d="M6753,-122.2C6753,-146.36 6753,-186 6753,-186 6753,-186 4040.49,-186 4040.49,-186"/>
<polygon fill="black" stroke="black" points="4040.49,-182.5 4030.49,-186 4040.49,-189.5 4040.49,-182.5"/>
</g>
<!-- SharedModule -->
<g id="node31" class="node">
<title>SharedModule</title>
<polygon fill="#8dd3c7" stroke="black" points="6632.42,-122 6629.42,-126 6608.42,-126 6605.42,-122 6533.58,-122 6533.58,-86 6632.42,-86 6632.42,-122"/>
<text text-anchor="middle" x="6583" y="-99.8" font-family="Times,serif" font-size="14.00">SharedModule</text>
</g>
<!-- SharedModule&#45;&gt;CashManagementModule -->
<g id="edge30" class="edge">
<title>SharedModule&#45;&gt;CashManagementModule</title>
<path fill="none" stroke="black" d="M6583,-122.15C6583,-145.76 6583,-184 6583,-184 6583,-184 4040.24,-184 4040.24,-184"/>
<polygon fill="black" stroke="black" points="4040.24,-180.5 4030.24,-184 4040.24,-187.5 4040.24,-180.5"/>
</g>
<!-- ThemeModule -->
<g id="node32" class="node">
<title>ThemeModule</title>
<polygon fill="#8dd3c7" stroke="black" points="6516.42,-122 6513.42,-126 6492.42,-126 6489.42,-122 6417.58,-122 6417.58,-86 6516.42,-86 6516.42,-122"/>
<text text-anchor="middle" x="6467" y="-99.8" font-family="Times,serif" font-size="14.00">ThemeModule</text>
</g>
<!-- ThemeModule&#45;&gt;CashManagementModule -->
<g id="edge31" class="edge">
<title>ThemeModule&#45;&gt;CashManagementModule</title>
<path fill="none" stroke="black" d="M6467,-122.09C6467,-145.13 6467,-182 6467,-182 6467,-182 4040.19,-182 4040.19,-182"/>
<polygon fill="black" stroke="black" points="4040.19,-178.5 4030.19,-182 4040.19,-185.5 4040.19,-178.5"/>
</g>
<!-- AuthModule -->
<g id="node33" class="node">
<title>AuthModule</title>
<polygon fill="#8dd3c7" stroke="black" points="6399.55,-122 6396.55,-126 6375.55,-126 6372.55,-122 6312.45,-122 6312.45,-86 6399.55,-86 6399.55,-122"/>
<text text-anchor="middle" x="6356" y="-99.8" font-family="Times,serif" font-size="14.00">AuthModule</text>
</g>
<!-- AuthModule&#45;&gt;CashManagementModule -->
<g id="edge32" class="edge">
<title>AuthModule&#45;&gt;CashManagementModule</title>
<path fill="none" stroke="black" d="M6356,-122.01C6356,-144.49 6356,-180 6356,-180 6356,-180 4040.4,-180 4040.4,-180"/>
<polygon fill="black" stroke="black" points="4040.4,-176.5 4030.4,-180 4040.4,-183.5 4040.4,-176.5"/>
</g>
<!-- CashupService -->
<g id="node34" class="node">
<title>CashupService</title>
<ellipse fill="#fdb462" stroke="black" cx="1119" cy="-104" rx="68.92" ry="18"/>
<text text-anchor="middle" x="1119" y="-99.8" font-family="Times,serif" font-size="14.00">CashupService</text>
</g>
<!-- CashupService&#45;&gt;CashManagementModule -->
<g id="edge33" class="edge">
<title>CashupService&#45;&gt;CashManagementModule</title>
<path fill="none" stroke="black" d="M1119,-122.17C1119,-143.5 1119,-176 1119,-176 1119,-176 3859.83,-176 3859.83,-176"/>
<polygon fill="black" stroke="black" points="3859.83,-179.5 3869.83,-176 3859.83,-172.5 3859.83,-179.5"/>
</g>
<!-- ReportService -->
<g id="node35" class="node">
<title>ReportService</title>
<ellipse fill="#fdb462" stroke="black" cx="966" cy="-104" rx="66.05" ry="18"/>
<text text-anchor="middle" x="966" y="-99.8" font-family="Times,serif" font-size="14.00">ReportService</text>
</g>
<!-- ReportService&#45;&gt;CashManagementModule -->
<g id="edge34" class="edge">
<title>ReportService&#45;&gt;CashManagementModule</title>
<path fill="none" stroke="black" d="M966,-122.29C966,-144.21 966,-178 966,-178 966,-178 3859.8,-178 3859.8,-178"/>
<polygon fill="black" stroke="black" points="3859.8,-181.5 3869.8,-178 3859.8,-174.5 3859.8,-181.5"/>
</g>
<!-- ReportFacadeService -->
<g id="node36" class="node">
<title>ReportFacadeService</title>
<ellipse fill="#fdb462" stroke="black" cx="788" cy="-104" rx="93.74" ry="18"/>
<text text-anchor="middle" x="788" y="-99.8" font-family="Times,serif" font-size="14.00">ReportFacadeService</text>
</g>
<!-- ReportFacadeService&#45;&gt;CashManagementModule -->
<g id="edge35" class="edge">
<title>ReportFacadeService&#45;&gt;CashManagementModule</title>
<path fill="none" stroke="black" d="M788,-122.01C788,-144.49 788,-180 788,-180 788,-180 3859.86,-180 3859.86,-180"/>
<polygon fill="black" stroke="black" points="3859.86,-183.5 3869.86,-180 3859.86,-176.5 3859.86,-183.5"/>
</g>
<!-- CashupFacadeService -->
<g id="node37" class="node">
<title>CashupFacadeService</title>
<ellipse fill="#fdb462" stroke="black" cx="580" cy="-104" rx="96.11" ry="18"/>
<text text-anchor="middle" x="580" y="-99.8" font-family="Times,serif" font-size="14.00">CashupFacadeService</text>
</g>
<!-- CashupFacadeService&#45;&gt;CashManagementModule -->
<g id="edge36" class="edge">
<title>CashupFacadeService&#45;&gt;CashManagementModule</title>
<path fill="none" stroke="black" d="M580,-122.09C580,-145.13 580,-182 580,-182 580,-182 3859.61,-182 3859.61,-182"/>
<polygon fill="black" stroke="black" points="3859.61,-185.5 3869.61,-182 3859.61,-178.5 3859.61,-185.5"/>
</g>
<!-- safesummaryService -->
<g id="node38" class="node">
<title>safesummaryService</title>
<ellipse fill="#fdb462" stroke="black" cx="374" cy="-104" rx="91.45" ry="18"/>
<text text-anchor="middle" x="374" y="-99.8" font-family="Times,serif" font-size="14.00">safesummaryService</text>
</g>
<!-- safesummaryService&#45;&gt;CashManagementModule -->
<g id="edge37" class="edge">
<title>safesummaryService&#45;&gt;CashManagementModule</title>
<path fill="none" stroke="black" d="M374,-122.15C374,-145.76 374,-184 374,-184 374,-184 3859.45,-184 3859.45,-184"/>
<polygon fill="black" stroke="black" points="3859.45,-187.5 3869.45,-184 3859.45,-180.5 3859.45,-187.5"/>
</g>
<!-- SafesummaryFacadeService -->
<g id="node39" class="node">
<title>SafesummaryFacadeService</title>
<ellipse fill="#fdb462" stroke="black" cx="144" cy="-104" rx="120.36" ry="18"/>
<text text-anchor="middle" x="144" y="-99.8" font-family="Times,serif" font-size="14.00">SafesummaryFacadeService</text>
</g>
<!-- SafesummaryFacadeService&#45;&gt;CashManagementModule -->
<g id="edge38" class="edge">
<title>SafesummaryFacadeService&#45;&gt;CashManagementModule</title>
<path fill="none" stroke="black" d="M144,-122.2C144,-146.36 144,-186 144,-186 144,-186 3859.63,-186 3859.63,-186"/>
<polygon fill="black" stroke="black" points="3859.63,-189.5 3869.63,-186 3859.63,-182.5 3859.63,-189.5"/>
</g>
</g>
</svg>
